<svg width="26" height="26" viewBox="0 0 26 26" fill="none" xmlns="http://www.w3.org/2000/svg">
<path d="M18.1842 1.0119L23.6629 0.613647L25.3804 24.2219L19.9017 24.6248L19.7173 22.1533C17.6277 24.4174 15.2883 25.6435 12.6991 25.8315C9.43563 26.0688 6.65156 25.0854 4.34688 22.8815C2.05448 20.6279 0.777375 17.6991 0.515563 14.0951C0.257438 10.557 1.10126 7.53109 3.04703 5.01744C4.9928 2.5038 7.55838 1.1299 10.7438 0.895741C13.4897 0.696001 16.0363 1.64861 18.3833 3.75355L18.1842 1.0119ZM6.09475 13.6849C6.25946 15.9478 6.99942 17.7461 8.31463 19.0797C9.66364 20.4275 11.2834 21.0326 13.1738 20.8949C15.1933 20.7474 16.775 19.9337 17.9187 18.4538C19.0582 16.9253 19.5474 15.0542 19.3863 12.8405C19.2253 10.6267 18.4703 8.84599 17.1213 7.49821C15.7747 6.183 14.1077 5.59761 12.1201 5.74204C10.2463 5.87847 8.7307 6.70355 7.57344 8.21727C6.43339 9.74574 5.94049 11.5683 6.09475 13.6849Z" fill="black"/>
</svg>
