<svg width="14" height="38" viewBox="0 0 14 38" fill="none" xmlns="http://www.w3.org/2000/svg">
<path d="M6.95848 3.57121C7.17009 2.66022 7.73088 1.86871 8.52016 1.367C9.30945 0.865293 10.2641 0.693489 11.1788 0.888557C11.6398 0.981804 12.0768 1.16847 12.4628 1.43705C12.8489 1.70563 13.1759 2.05044 13.4236 2.45021C13.6851 2.83711 13.8632 3.27417 13.9467 3.73363C14.0302 4.19309 14.0172 4.66488 13.9085 5.11904C13.8157 5.57971 13.6297 6.01655 13.362 6.40273C13.0942 6.78891 12.7503 7.11628 12.3514 7.36473C11.964 7.62686 11.5261 7.80536 11.0658 7.88885C10.6055 7.97234 10.1329 7.95898 9.67801 7.84963C9.21741 7.74935 8.78125 7.55877 8.39473 7.28893C8.00822 7.01908 7.67901 6.67531 7.42614 6.27748C7.17326 5.87966 7.00174 5.43566 6.92147 4.97115C6.8412 4.50664 6.85377 4.03083 6.95848 3.57121ZM10.9991 14.5332L5.92874 37.6548L0.587402 36.484L5.65771 13.3624L10.9991 14.5332Z" fill="black"/>
</svg>
