<svg width="21" height="35" viewBox="0 0 21 35" fill="none" xmlns="http://www.w3.org/2000/svg">
<path d="M3.41938 29.593C4.07133 28.6464 4.71262 27.7531 5.34324 26.9132C5.73505 26.514 6.10363 26.0926 6.44717 25.6512C6.83926 25.154 7.26065 24.6805 7.70908 24.2333C8.11241 23.8221 8.55593 23.4523 9.03298 23.1294C9.40541 22.8547 9.86312 22.7208 10.3249 22.7514C10.8715 22.8354 11.2288 23.1687 11.3968 23.7514C11.5778 24.4208 11.6838 25.1083 11.7128 25.8012C11.7555 26.5785 11.7975 27.3458 11.8388 28.1031C11.8801 28.8603 12.0481 29.4276 12.3427 29.8049C12.7508 29.6438 13.142 29.4429 13.5107 29.205C13.9221 28.9306 14.3119 28.6251 14.6766 28.2911C15.0966 27.9137 15.6012 27.4511 16.1905 26.9032C16.7798 26.3552 17.5577 25.7032 18.5243 24.9473C18.8418 24.6255 19.2026 24.3496 19.5962 24.1273C19.7863 24.013 19.9873 23.9179 20.1962 23.8434C20.4702 23.7394 20.6482 23.8554 20.7322 24.1913C20.7218 24.2828 20.6827 24.3686 20.6206 24.4365C20.5584 24.5044 20.4764 24.5509 20.3862 24.5693C20.2179 24.6031 20.0572 24.6675 19.9122 24.7593C19.2061 25.1738 18.568 25.6945 18.0204 26.3032C17.4892 26.8997 16.8974 27.4392 16.2545 27.9131L15.3725 28.669C15.0792 28.921 14.7639 29.215 14.4266 29.551C14.1333 29.8029 13.786 30.0763 13.3847 30.3709C13.2042 30.5123 12.9956 30.6137 12.7728 30.6682C12.55 30.7227 12.3182 30.729 12.0928 30.6869C11.5888 30.5616 11.2555 30.2043 11.0928 29.615C10.9156 28.9675 10.8202 28.3003 10.8089 27.6291C10.7875 26.8932 10.7555 26.1599 10.7129 25.4293C10.6702 24.6986 10.5015 24.142 10.2069 23.7594C9.57671 23.9187 9.00675 24.2586 8.56701 24.7373C8.17447 25.1939 7.75367 25.6253 7.3071 26.0292C6.92713 26.4932 6.54849 26.9665 6.17119 27.4491C5.79388 27.9317 5.41524 28.4257 5.03527 28.931C4.32065 29.9416 3.73202 30.8142 3.26939 31.5488C2.80675 32.2834 2.41812 32.9034 2.10347 33.4087C1.86481 33.8034 1.60164 34.1828 1.31552 34.5446C1.24454 34.6503 1.15108 34.739 1.04183 34.8043C0.932586 34.8696 0.810249 34.91 0.683572 34.9226C0.584077 34.935 0.483131 34.9177 0.393449 34.8729C0.303767 34.828 0.229361 34.7577 0.179606 34.6706C0.089038 34.4726 0.0458972 34.2562 0.0536141 34.0387C0.055548 33.7733 0.0870743 33.509 0.147608 33.2507C0.211603 32.9767 0.263601 32.7367 0.305598 32.5268C0.389592 32.1048 0.483585 31.6748 0.589578 31.2328C0.69557 30.7909 0.80956 30.3809 0.937551 30.0029C2.14977 25.9719 3.59204 22.0137 5.25725 18.1478C6.83449 14.4821 8.72258 10.9582 10.9009 7.61451C11.2643 6.98404 11.6755 6.38232 12.1308 5.81463C12.6147 5.20534 13.1294 4.58472 13.6747 3.95277C14.18 3.36481 14.7059 2.78685 15.2525 2.21889C15.7768 1.66481 16.4252 1.24326 17.1444 0.988977C17.4442 0.911424 17.7499 0.858582 18.0583 0.830986C18.202 0.82369 18.3456 0.845042 18.4809 0.893796C18.6161 0.94255 18.7404 1.01773 18.8463 1.11497C19.2683 1.66293 19.3723 2.31488 19.1623 3.07083C18.9523 3.82677 18.7623 4.47073 18.5943 5.02469C17.682 6.93625 16.6583 8.79265 15.5285 10.5843C14.4139 12.3508 13.2473 14.0741 12.0288 15.7539C10.8102 17.4338 9.56961 19.0737 8.30703 20.6736C7.03763 22.2789 5.55233 23.7009 3.89334 24.8993C3.47071 26.1192 3.06074 27.3278 2.66343 28.525C2.26613 29.7223 1.89815 30.9729 1.55951 32.2768C2.14747 31.4342 2.76742 30.5396 3.41938 29.593ZM18.2063 3.16882C18.2475 2.95054 18.2689 2.72899 18.2703 2.50687C18.2778 2.33372 18.2449 2.1612 18.1743 2.0029C18.1123 1.87691 17.9744 1.85492 17.7644 1.93891C16.9234 2.36992 16.1657 2.94683 15.5265 3.64279C14.7283 4.46932 13.9929 5.35439 13.3267 6.2906C12.6334 7.25853 11.9814 8.2258 11.3708 9.1924C10.7602 10.159 10.2456 10.9783 9.82693 11.6502C8.81767 13.5448 7.87173 15.478 6.98913 17.4498C6.10652 19.4217 5.24592 21.4622 4.40731 23.5714C6.75904 21.4289 8.87309 19.0393 10.7129 16.4439C12.5634 13.8374 14.3293 11.1043 16.0105 8.24447C16.2625 7.7825 16.5165 7.30853 16.7684 6.82456C17.0278 6.32301 17.2595 5.80761 17.4624 5.28067L17.7764 4.64872C17.9194 4.34727 18.0255 4.02966 18.0923 3.70278C18.1422 3.52754 18.1803 3.34915 18.2063 3.16882Z" fill="#C5F42C"/>
</svg>
