<svg width="33" height="28" viewBox="0 0 33 28" fill="none" xmlns="http://www.w3.org/2000/svg">
<path d="M23.9479 2.80713C25.8237 2.64184 27.7098 2.62704 29.5879 2.76288C30.1306 2.8016 30.712 2.85968 31.3321 2.93712C31.5838 2.99612 31.8456 3.06802 32.1176 3.1556C32.3895 3.24318 32.5435 3.40266 32.5785 3.63498C32.5928 3.68677 32.5923 3.74155 32.5769 3.79306C32.5616 3.84457 32.5321 3.89073 32.4918 3.92629C32.4093 3.98951 32.34 4.06847 32.2881 4.1586C32.23 4.19732 32.1517 4.24618 32.0549 4.30426C31.9581 4.36234 31.8613 4.34298 31.7645 4.24618C31.7451 4.07102 31.794 3.96962 31.9101 3.94012C31.9682 3.92505 32.0209 3.89385 32.062 3.85013C32.1031 3.80641 32.131 3.75196 32.1425 3.69305C31.8714 3.51851 31.4255 3.39744 30.8048 3.32984C30.1841 3.26223 29.5203 3.2186 28.8136 3.19893C28.1068 3.17988 27.4237 3.17988 26.7642 3.19893C26.1048 3.21798 25.6202 3.23734 25.3104 3.25701C24.1089 3.29573 22.9366 3.37347 21.7935 3.49024C20.6504 3.60701 19.5441 3.74253 18.4747 3.89679C17.5449 5.77618 16.6629 7.6562 15.829 9.53682C14.995 11.4174 14.1327 13.2971 13.2422 15.1759C12.3695 17.0566 11.5069 18.9415 10.6545 20.8307C9.80204 22.7199 9.00001 24.6629 8.24837 26.6597C8.30004 26.7022 8.3661 26.723 8.43275 26.7178C8.5194 26.7178 8.56365 26.7657 8.56365 26.8625C8.57715 26.9301 8.5721 27 8.54905 27.065C8.52601 27.1299 8.48582 27.1874 8.43275 27.2313C8.33484 27.3083 8.25121 27.4019 8.18569 27.5079C8.10596 27.6069 8.01841 27.6994 7.92387 27.7844C7.86719 27.8291 7.80034 27.8592 7.72927 27.8719C7.65819 27.8846 7.58507 27.8796 7.5164 27.8572C7.40025 27.7608 7.36153 27.62 7.40025 27.435C7.4261 27.2877 7.47527 27.1455 7.54591 27.0137C8.22195 25.17 9.02091 23.2033 9.94278 21.1137C10.8647 19.0241 11.8093 16.9456 12.7766 14.8782C13.7452 12.8132 14.6852 10.841 15.5966 8.96157C16.5081 7.08217 17.2852 5.42311 17.9281 3.98437C15.6799 4.27445 13.5141 4.65242 11.4307 5.11827C9.34725 5.58413 7.24906 6.06842 5.13612 6.57115C4.65245 6.6873 4.13405 6.81329 3.58092 6.94912C3.01517 7.08637 2.43326 7.1453 1.85148 7.12427C1.67601 7.12421 1.50085 7.1094 1.32786 7.08002C1.24623 7.06899 1.16966 7.03418 1.10769 6.97991C1.04572 6.92565 1.0011 6.85434 0.979389 6.77488C0.94067 6.54257 0.998748 6.36803 1.15362 6.25126C1.31088 6.13381 1.47597 6.02724 1.64775 5.93229C1.86162 5.8401 2.1179 5.73316 2.41844 5.62623C2.71959 5.51987 3.03152 5.44692 3.34861 5.40866C3.66216 5.37019 3.97893 5.36525 4.29353 5.39391C4.58808 5.41742 4.87012 5.52314 5.10754 5.69905C5.12653 5.72691 5.13668 5.75984 5.13668 5.79355C5.13668 5.82726 5.12653 5.86018 5.10754 5.88804C5.08043 5.92781 5.06076 5.97216 5.04947 6.01895C7.16118 5.51437 9.29777 5.03961 11.4593 4.59465C13.6208 4.14969 15.8545 3.7622 18.1604 3.43216C18.3152 3.10213 18.4655 2.75305 18.6112 2.38491C18.7568 2.01678 18.9071 1.65848 19.062 1.31001C19.0136 1.22974 18.9845 1.13939 18.9768 1.046C18.9691 0.952615 18.9831 0.858719 19.0177 0.771633C19.0859 0.568206 19.207 0.466492 19.3809 0.466492C19.4819 0.468156 19.5794 0.503891 19.6575 0.567899C19.7335 0.620914 19.7897 0.697813 19.817 0.786382C19.8346 0.912212 19.809 1.04031 19.7442 1.1496C19.6851 1.25823 19.6318 1.36994 19.5847 1.48424C19.4488 1.77433 19.3035 2.09883 19.1486 2.45774C18.9937 2.81666 18.8582 3.11227 18.7421 3.34459C20.3707 3.15099 22.106 2.97184 23.9479 2.80713ZM3.27854 6.42641C3.78312 6.31026 4.27724 6.19379 4.76092 6.07702C4.22 5.90283 3.64126 5.88272 3.08956 6.01895C2.58879 6.12713 2.10479 6.302 1.65051 6.53888C2.19577 6.58149 2.74433 6.54359 3.27854 6.42641Z" fill="black"/>
</svg>
