<svg width="29" height="46" viewBox="0 0 29 46" fill="none" xmlns="http://www.w3.org/2000/svg">
<path d="M28.5029 13.0728C28.5224 13.1988 28.5239 13.327 28.5075 13.4535C28.4983 13.5263 28.4881 13.6001 28.4771 13.6738C28.4568 13.8204 28.4328 13.9661 28.4079 14.1117C27.8452 17.384 26.3441 20.4223 24.0871 22.8575L24.112 22.8133C23.7484 23.2218 23.2653 23.5054 22.7314 23.6237C22.1974 23.7421 21.6398 23.6893 21.1376 23.4727C20.6354 23.2562 20.2142 22.8869 19.9338 22.4174C19.6533 21.9478 19.528 21.4019 19.5754 20.8571C19.5759 20.8512 19.5759 20.8454 19.5754 20.8396C19.5883 20.7001 19.6127 20.562 19.6483 20.4266C19.8326 20.1002 20.006 19.7646 20.1654 19.4208C20.928 17.7855 21.3662 16.018 21.4561 14.2159C20.6293 13.4028 20.1208 12.3208 20.0226 11.1654C19.3112 11.2107 18.6185 11.4114 17.9932 11.7534C17.3678 12.0954 16.8251 12.5704 16.4032 13.1449C15.9813 13.7194 15.6905 14.3794 15.5513 15.0784C15.4121 15.7774 15.4279 16.4985 15.5976 17.1908C15.6597 17.4481 15.7432 17.6997 15.8474 17.943C15.8947 18.0856 15.9408 18.2285 15.9857 18.3717C16.0305 18.5149 16.0729 18.6495 16.1129 18.7755C16.1498 18.8925 16.1866 19.0106 16.2217 19.1286C16.2392 19.1839 16.2558 19.2401 16.2733 19.2954C16.347 19.5416 16.4199 19.7868 16.4908 20.0329C16.5314 20.173 16.571 20.3141 16.6107 20.4542C16.6503 20.5943 16.6881 20.7308 16.7259 20.8691V20.8847C16.7637 21.0239 16.8015 21.1613 16.8375 21.3014C16.8375 21.3171 16.8467 21.3328 16.8504 21.3484C16.8928 21.5088 16.9343 21.6692 16.9767 21.8306C17.0218 22.0066 17.0689 22.1836 17.1103 22.3606C17.1103 22.3689 17.1103 22.3772 17.1168 22.3846C17.1546 22.5395 17.1924 22.6934 17.2293 22.8456C17.2357 22.876 17.2431 22.9055 17.2505 22.9377C17.2892 23.1018 17.3279 23.265 17.3648 23.4282C17.6395 24.6248 17.8798 25.834 18.0857 27.0558C18.2025 27.749 18.3079 28.4459 18.4019 29.1466C18.4369 29.4084 18.471 29.6702 18.5024 29.932C18.8064 32.4324 18.9627 34.9486 18.9707 37.4674C18.9707 37.5412 18.9707 37.6158 18.9707 37.6896C18.974 40.0078 18.8518 42.3245 18.6047 44.6295C17.7557 45.3317 16.6938 45.7256 15.5922 45.7469C14.4906 45.7682 13.4142 45.4155 12.5388 44.7465C12.5812 43.7902 12.6024 42.829 12.6024 41.8629C12.6024 40.257 12.5437 38.6659 12.4263 37.0894C12.3034 35.4086 12.1141 33.7467 11.8584 32.1039C11.6648 30.8471 11.4347 29.6032 11.1679 28.3722C11.0782 27.9573 10.986 27.5443 10.8914 27.1332C9.85475 22.7644 8.35467 18.5188 6.4166 14.4685C5.60405 12.5479 4.37621 10.8311 2.82129 9.44149C2.82866 9.43135 2.83696 9.42213 2.84433 9.41291C2.19205 8.96521 1.65867 8.36533 1.29035 7.66515C0.922028 6.96497 0.729861 6.1856 0.73047 5.39446C0.73047 5.2276 0.739691 5.06166 0.755363 4.89849C0.849715 3.96791 1.20994 3.08415 1.79302 2.35278C2.3761 1.62141 3.15739 1.07334 4.04356 0.774031C4.92973 0.47472 5.88332 0.436821 6.79045 0.664862C7.69758 0.892903 8.5199 1.37725 9.15918 2.06004C9.19237 2.09876 9.2274 2.13655 9.26335 2.17343L9.27072 2.18172C9.5553 2.46555 9.92085 2.65421 10.3171 2.72174C10.7133 2.78926 11.1207 2.73233 11.4832 2.55877C14.4658 1.10761 17.7047 0.257171 21.0154 0.0558783C21.5415 0.02392 22.0722 0.00763363 22.6075 0.00701904C23.2749 0.00701904 23.9353 0.0322176 24.5886 0.0826135C24.8523 0.102895 25.1141 0.127786 25.3759 0.155442C25.716 0.192895 26.0343 0.341754 26.281 0.578847C26.5278 0.81594 26.6892 1.12797 26.7403 1.46635L27.1422 4.12411C27.1422 4.12411 28.3074 11.7729 28.5029 13.0728Z" fill="black"/>
</svg>
