<svg width="11" height="16" viewBox="0 0 11 16" fill="none" xmlns="http://www.w3.org/2000/svg">
<path d="M2.36637 13.2513C2.66691 12.8149 2.96252 12.4032 3.25322 12.016C3.43383 11.832 3.60373 11.6378 3.76209 11.4343C3.94284 11.205 4.13708 10.9868 4.3438 10.7807C4.52972 10.5911 4.73417 10.4206 4.95408 10.2718C5.12576 10.1452 5.33674 10.0834 5.54961 10.0976C5.80159 10.1363 5.9663 10.2899 6.04373 10.5585C6.12715 10.8671 6.176 11.184 6.18939 11.5034C6.20906 11.8617 6.22842 12.2154 6.24747 12.5645C6.26652 12.9136 6.34396 13.1751 6.47978 13.349C6.66789 13.2747 6.84822 13.1821 7.01815 13.0725C7.20782 12.946 7.3875 12.8051 7.55561 12.6512C7.7492 12.4772 7.98182 12.264 8.25347 12.0114C8.52512 11.7588 8.88372 11.4583 9.3293 11.1098C9.47566 10.9615 9.64197 10.8343 9.82342 10.7318C9.91103 10.6791 10.0037 10.6352 10.1 10.6009C10.2263 10.553 10.3083 10.6064 10.347 10.7613C10.3423 10.8035 10.3243 10.843 10.2956 10.8743C10.267 10.9056 10.2291 10.9271 10.1876 10.9355C10.11 10.9511 10.0359 10.9808 9.96908 11.0231C9.64359 11.2142 9.34945 11.4542 9.09698 11.7348C8.85213 12.0098 8.57932 12.2585 8.28297 12.4769L7.87642 12.8254C7.74121 12.9415 7.59586 13.0771 7.44038 13.2319C7.30517 13.3481 7.14507 13.4741 6.96008 13.6099C6.87686 13.6751 6.7807 13.7218 6.67801 13.7469C6.57532 13.7721 6.46846 13.775 6.36455 13.7556C6.13223 13.6978 5.97859 13.5331 5.90361 13.2614C5.82192 12.963 5.77795 12.6554 5.7727 12.346C5.76287 12.0068 5.74812 11.6687 5.72845 11.332C5.70879 10.9952 5.63104 10.7386 5.49522 10.5622C5.20472 10.6356 4.94199 10.7923 4.73928 11.013C4.55833 11.2234 4.36435 11.4223 4.1585 11.6085C3.98334 11.8224 3.8088 12.0406 3.63488 12.263C3.46095 12.4855 3.28641 12.7132 3.11125 12.9462C2.78183 13.412 2.51049 13.8143 2.29723 14.1529C2.08397 14.4915 1.90482 14.7773 1.75978 15.0102C1.64976 15.1922 1.52845 15.3671 1.39656 15.5339C1.36384 15.5826 1.32076 15.6234 1.2704 15.6536C1.22004 15.6837 1.16364 15.7023 1.10525 15.7081C1.05939 15.7138 1.01285 15.7058 0.971512 15.6852C0.930172 15.6645 0.895873 15.6321 0.872937 15.5919C0.831188 15.5007 0.811301 15.4009 0.814859 15.3006C0.81575 15.1783 0.830283 15.0565 0.858187 14.9374C0.887687 14.8111 0.911656 14.7005 0.931016 14.6037C0.969735 14.4092 1.01306 14.211 1.06192 14.0072C1.11078 13.8035 1.16333 13.6145 1.22233 13.4403C1.78112 11.5821 2.44597 9.75749 3.21358 7.97541C3.94064 6.28565 4.81099 4.66121 5.81511 3.11989C5.98264 2.82927 6.17218 2.55189 6.38206 2.2902C6.60515 2.00934 6.84238 1.72325 7.09375 1.43194C7.32668 1.16091 7.56913 0.894486 7.82111 0.632674C8.06278 0.377261 8.36169 0.182938 8.6932 0.065721C8.83141 0.0299717 8.97231 0.00561327 9.1145 -0.00710787C9.1807 -0.0104711 9.2469 -0.000628681 9.30926 0.0218456C9.37162 0.0443199 9.42889 0.0789767 9.47772 0.123798C9.67223 0.376392 9.72017 0.676923 9.62337 1.02539C9.52658 1.37386 9.439 1.6707 9.36156 1.92606C8.94101 2.80724 8.46912 3.66298 7.94833 4.48888C7.43453 5.3032 6.89677 6.09755 6.33504 6.87192C5.77332 7.6463 5.20145 8.40224 4.61944 9.13974C4.03428 9.87973 3.3496 10.5352 2.58486 11.0877C2.39004 11.65 2.20105 12.2071 2.01791 12.759C1.83476 13.3109 1.66513 13.8874 1.50903 14.4885C1.78006 14.1 2.06584 13.6877 2.36637 13.2513ZM9.18272 1.07056C9.20169 0.969942 9.21156 0.867816 9.21222 0.765424C9.21564 0.685605 9.20049 0.606081 9.16797 0.533111C9.13939 0.475033 9.07578 0.464893 8.97898 0.503612C8.59134 0.702294 8.24206 0.968234 7.94741 1.28905C7.57943 1.67006 7.24047 2.07805 6.93334 2.50961C6.61376 2.9558 6.31323 3.40168 6.03175 3.84725C5.75027 4.29282 5.51304 4.67049 5.32006 4.98024C4.85482 5.85356 4.41878 6.7447 4.01192 7.65367C3.60507 8.56264 3.20835 9.50326 2.82178 10.4755C3.90586 9.48791 4.88037 8.38637 5.72845 7.18997C6.58149 5.98846 7.39551 4.72856 8.1705 3.41028C8.28665 3.19733 8.40373 2.97885 8.51989 2.75575C8.63946 2.52455 8.74625 2.28696 8.83978 2.04406L8.98452 1.75275C9.05044 1.61379 9.09934 1.46739 9.13017 1.3167C9.15315 1.23592 9.17071 1.15369 9.18272 1.07056Z" fill="black"/>
</svg>
