<svg width="61" height="100" viewBox="0 0 61 100" fill="none" xmlns="http://www.w3.org/2000/svg">
<path d="M60.6652 29.1165C60.7076 29.3899 60.7109 29.668 60.6753 29.9424C60.6553 30.1004 60.6332 30.2604 60.6092 30.4204C60.5652 30.7384 60.5132 31.0543 60.4593 31.3703C59.2386 38.469 55.9822 45.0602 51.0859 50.343L51.1399 50.247C50.3511 51.1332 49.3032 51.7483 48.1449 52.0051C46.9866 52.2619 45.7768 52.1473 44.6874 51.6775C43.598 51.2077 42.6842 50.4067 42.0759 49.3881C41.4676 48.3695 41.1956 47.1852 41.2986 46.0033C41.2997 45.9906 41.2997 45.9779 41.2986 45.9653C41.3265 45.6628 41.3794 45.3631 41.4566 45.0693C41.8566 44.3614 42.2326 43.6334 42.5785 42.8875C44.2327 39.34 45.1835 35.5056 45.3783 31.5963C43.5848 29.8325 42.4817 27.4852 42.2685 24.9788C40.7254 25.077 39.2227 25.5124 37.8661 26.2544C36.5095 26.9963 35.3321 28.0267 34.4169 29.2729C33.5017 30.5192 32.8708 31.951 32.5689 33.4674C32.2669 34.9838 32.3012 36.5481 32.6692 38.0498C32.8039 38.608 32.9852 39.1539 33.2112 39.6817C33.3138 39.991 33.4138 40.301 33.5111 40.6117C33.6085 40.9223 33.7005 41.2143 33.7871 41.4876C33.8671 41.7416 33.9471 41.9976 34.0231 42.2535C34.0611 42.3735 34.0971 42.4955 34.1351 42.6155C34.2951 43.1495 34.4531 43.6814 34.6071 44.2154C34.6951 44.5194 34.7811 44.8254 34.8671 45.1293C34.9531 45.4333 35.035 45.7293 35.117 46.0293V46.0633C35.199 46.3652 35.281 46.6632 35.359 46.9672C35.359 47.0012 35.379 47.0352 35.387 47.0692C35.479 47.4172 35.569 47.7652 35.661 48.1151C35.759 48.4971 35.861 48.8811 35.951 49.265C35.951 49.283 35.951 49.301 35.965 49.317C36.047 49.653 36.129 49.987 36.209 50.317C36.223 50.383 36.239 50.447 36.255 50.517C36.339 50.8729 36.423 51.2269 36.503 51.5809C37.0989 54.1767 37.6202 56.7999 38.0668 59.4503C38.3201 60.9542 38.5488 62.4661 38.7528 63.986C38.8288 64.554 38.9028 65.1219 38.9708 65.6899C39.6302 71.1142 39.9694 76.5726 39.9867 82.0367C39.9867 82.1967 39.9867 82.3587 39.9867 82.5187C39.9938 87.5477 39.7288 92.5733 39.1928 97.5736C37.351 99.0971 35.0473 99.9516 32.6575 99.9978C30.2678 100.044 27.9329 99.2789 26.0337 97.8276C26.1257 95.7531 26.1717 93.6679 26.1717 91.5721C26.1717 88.0883 26.0443 84.6366 25.7897 81.2168C25.523 77.5704 25.1124 73.9653 24.5578 70.4016C24.1378 67.6751 23.6385 64.9766 23.0599 62.3061C22.8652 61.4062 22.6652 60.5103 22.4599 59.6183C20.2111 50.1409 16.9569 40.9307 12.7526 32.1443C10.9899 27.9779 8.32633 24.2536 4.95317 21.239C4.96917 21.217 4.98717 21.197 5.00317 21.177C3.58814 20.2058 2.43106 18.9045 1.63205 17.3855C0.833037 15.8666 0.416161 14.1759 0.417484 12.4596C0.417484 12.0977 0.437486 11.7377 0.471484 11.3837C0.676166 9.36497 1.45762 7.44781 2.72252 5.86122C3.98742 4.27463 5.68229 3.08568 7.6047 2.43637C9.5271 1.78706 11.5958 1.70485 13.5636 2.19955C15.5315 2.69424 17.3154 3.74495 18.7022 5.22615C18.7742 5.31015 18.8502 5.39214 18.9282 5.47213L18.9442 5.49013C19.5615 6.10586 20.3545 6.51513 21.2141 6.6616C22.0736 6.80808 22.9574 6.68458 23.7438 6.30808C30.2141 3.16001 37.2402 1.31513 44.4224 0.878453C45.5636 0.809125 46.7149 0.773794 47.8762 0.772461C49.324 0.772461 50.7566 0.827125 52.1738 0.936451C52.7458 0.980448 53.3138 1.03445 53.8817 1.09444C54.6196 1.17569 55.31 1.49861 55.8453 2.01295C56.3806 2.52729 56.7308 3.20417 56.8415 3.93824L57.7134 9.70383C57.7134 9.70383 60.2413 26.2967 60.6652 29.1165Z" fill="#C5F42C"/>
</svg>
