<svg width="55" height="55" viewBox="0 0 55 55" fill="none" xmlns="http://www.w3.org/2000/svg">
<path d="M38.539 0.952802L50.4242 0.0888672L54.1499 51.3033L42.2648 52.1772L41.8648 46.8156C37.3318 51.7272 32.2568 54.387 26.6399 54.795C19.5603 55.3097 13.5208 53.1765 8.52112 48.3955C3.54813 43.5065 0.777664 37.1529 0.209704 29.3348C-0.350257 21.6594 1.48029 15.0951 5.70132 9.64219C9.92236 4.18924 15.488 1.20879 22.3981 0.700824C28.3551 0.267521 33.8793 2.33404 38.971 6.90039L38.539 0.952802ZM12.3129 28.4449C12.6702 33.3539 14.2754 37.2549 17.1285 40.148C20.055 43.0718 23.5687 44.3844 27.6698 44.0858C32.0508 43.7658 35.4819 42.0006 37.9631 38.7901C40.4349 35.4744 41.4961 31.4153 41.1468 26.613C40.7975 21.8107 39.1596 17.9476 36.2332 15.0238C33.312 12.1707 29.6956 10.9008 25.3839 11.2141C21.3189 11.5101 18.0311 13.2999 15.5206 16.5837C13.0475 19.8995 11.9782 23.8532 12.3129 28.4449Z" fill="#C5F42C"/>
</svg>
