<svg width="4" height="8" viewBox="0 0 4 8" fill="none" xmlns="http://www.w3.org/2000/svg">
<path d="M3.6226 3.96705C3.62326 4.51924 3.5278 5.06733 3.3405 5.58679C2.73101 6.14638 2.08589 6.66587 1.40918 7.14199C1.31576 6.44136 1.21036 5.74443 1.09297 5.05118C0.887086 3.83 0.646789 2.6208 0.37207 1.42359C0.573654 1.22078 0.76909 1.01213 0.958381 0.797643C1.04964 0.694385 1.16181 0.611698 1.28744 0.555066C1.41308 0.498434 1.54932 0.469147 1.68713 0.469147C1.82494 0.469147 1.96117 0.498434 2.0868 0.555066C2.21244 0.611698 2.32461 0.694385 2.41587 0.797643C3.14296 1.61375 3.56625 2.65569 3.61431 3.74764C3.62076 3.81586 3.6226 3.89146 3.6226 3.96705Z" fill="black"/>
</svg>
