<svg width="30" height="81" viewBox="0 0 30 81" fill="none" xmlns="http://www.w3.org/2000/svg">
<path d="M13.8874 6.64173C14.3465 4.66548 15.563 2.94843 17.2753 1.86005C18.9875 0.771677 21.0585 0.398976 23.0428 0.822144C24.0428 1.02443 24.9907 1.42937 25.8282 2.01201C26.6657 2.59466 27.3751 3.34266 27.9124 4.20991C28.4797 5.04921 28.8662 5.99736 29.0473 6.99407C29.2284 7.99079 29.2001 9.01428 28.9644 9.9995C28.7631 10.9988 28.3596 11.9465 27.7787 12.7843C27.1979 13.622 26.4519 14.3322 25.5866 14.8712C24.746 15.4398 23.7962 15.827 22.7976 16.0082C21.7991 16.1893 20.7737 16.1603 19.787 15.9231C18.7878 15.7055 17.8416 15.2921 17.0032 14.7067C16.1647 14.1213 15.4505 13.3756 14.9019 12.5126C14.3534 11.6495 13.9813 10.6864 13.8071 9.67867C13.633 8.671 13.6603 7.6388 13.8874 6.64173ZM22.6528 30.4221L11.6536 80.5805L0.0664062 78.0407L11.0656 27.8822L22.6528 30.4221Z" fill="#C5F42C"/>
</svg>
