<svg width="65" height="85" viewBox="0 0 65 85" fill="none" xmlns="http://www.w3.org/2000/svg">
<path d="M64.7726 6.08049V20.6315C57.6731 14.6919 50.3276 11.7221 42.7361 11.7221C34.3714 11.7221 27.3239 14.7265 21.5936 20.7355C15.83 26.711 12.9482 34.0219 12.9482 42.6679C12.9482 51.2086 15.83 58.4141 21.5936 64.2844C27.3572 70.1547 34.4234 73.0878 42.7921 73.0838C47.1158 73.0838 50.7889 72.3812 53.8113 70.9759C55.645 70.1926 57.4012 69.2392 59.057 68.1281C61.0456 66.7989 62.9554 65.3552 64.7766 63.8044V78.6194C57.7451 82.5911 50.3629 84.577 42.6301 84.577C30.9949 84.577 21.0623 80.5172 12.8322 72.3978C4.65013 64.2131 0.559082 54.3404 0.559082 42.7799C0.559082 32.4126 3.98551 23.1686 10.8384 15.0479C19.2738 5.10189 30.187 0.128912 43.5781 0.128912C50.8895 0.124913 57.9544 2.10877 64.7726 6.08049Z" fill="#C5F42C"/>
</svg>
