<svg width="20" height="14" viewBox="0 0 20 14" fill="none" xmlns="http://www.w3.org/2000/svg">
<path d="M4.42592 13.7048C3.65838 13.7021 2.90759 13.4801 2.26207 13.0649L2.21807 13.0389L2.17807 13.0069C1.5992 12.5461 1.20125 11.8961 1.05415 11.171C0.904289 10.5048 0.853746 9.82011 0.904162 9.13914C0.948287 8.45774 1.08279 7.78523 1.30413 7.13928C1.32413 7.07928 1.34413 7.01929 1.36613 6.96129C1.18916 6.80842 1.05191 6.6149 0.966157 6.39733L0.894165 6.21534V6.01536C0.886246 5.82188 0.918553 5.62886 0.989044 5.44851C1.05953 5.26815 1.16668 5.10438 1.30369 4.96755C1.44071 4.83072 1.60463 4.7238 1.78508 4.65356C1.96553 4.58332 2.1586 4.55128 2.35206 4.55946H2.48205L3.04602 3.70152C3.332 3.26155 3.63397 2.83358 3.94595 2.43361C4.30392 1.97041 4.73165 1.56561 5.21386 1.23369C5.72617 0.886602 6.29645 0.633973 6.89774 0.487747L7.01973 0.457747H7.14372C7.43063 0.447248 7.71588 0.505534 7.97567 0.627736C8.16597 0.724805 8.33949 0.851739 8.48963 1.00371L8.60962 1.1217L9.02759 1.96164L8.95959 2.30162C8.70161 3.58553 8.13765 4.58946 7.27971 5.28741C6.59742 5.83631 5.84143 6.28667 5.03388 6.62531C4.77989 7.12328 4.54391 7.63724 4.33192 8.15921C4.10571 8.78923 4.01176 9.45912 4.05594 10.1271C4.11794 10.433 4.22993 10.545 4.36592 10.601C5.01946 10.5629 5.66375 10.4281 6.27778 10.2011C6.90261 9.96643 7.505 9.67594 8.07766 9.33312C8.64562 8.98915 9.20958 8.62117 9.75354 8.2372C10.3481 7.81986 10.9672 7.43854 11.6074 7.09528C12.3954 6.56198 13.1953 6.02336 14.0072 5.47939C14.8372 4.92543 15.6891 4.38747 16.5391 3.87951C16.7565 3.73918 16.963 3.58276 17.157 3.41154C17.4416 3.14343 17.8117 2.98438 18.2021 2.96243C18.5924 2.94047 18.978 3.05703 19.2909 3.29155L19.8388 3.69152L19.6928 4.34748C19.6229 4.68994 19.4644 5.00808 19.2331 5.2702C19.0019 5.53232 18.706 5.72925 18.3749 5.84137C18.1571 5.91331 17.9539 6.02371 17.775 6.16735L17.707 6.21934C16.8604 6.8113 16.0144 7.39259 15.1692 7.96322C14.3239 8.53384 13.4606 9.11314 12.5793 9.7011C11.8834 10.1931 11.1234 10.721 10.3195 11.271C9.50487 11.8302 8.65068 12.3295 7.76368 12.7649C6.92906 13.1823 6.03864 13.4774 5.11987 13.6408C4.89071 13.6813 4.6586 13.7027 4.42592 13.7048Z" fill="#C5F42C"/>
</svg>
