<svg width="10" height="7" viewBox="0 0 10 7" fill="none" xmlns="http://www.w3.org/2000/svg">
<path d="M2.04962 6.22479C1.69581 6.22356 1.34972 6.1212 1.05215 5.92979L1.03187 5.91781L1.01343 5.90306C0.746588 5.69067 0.563143 5.39102 0.495337 5.05678C0.426255 4.74968 0.402956 4.43406 0.426196 4.12015C0.446537 3.80605 0.508538 3.49604 0.610571 3.19828C0.61979 3.17062 0.629009 3.14297 0.639149 3.11623C0.557572 3.04576 0.494305 2.95655 0.454774 2.85626L0.421588 2.77237V2.68018C0.417938 2.591 0.43283 2.50202 0.465324 2.41888C0.497819 2.33574 0.547207 2.26025 0.610369 2.19718C0.67353 2.1341 0.749091 2.08482 0.832274 2.05244C0.915456 2.02006 1.00445 2.00529 1.09364 2.00906H1.15356L1.41353 1.61357C1.54535 1.41076 1.68456 1.21348 1.82837 1.0291C1.99338 0.815582 2.19055 0.628983 2.41284 0.47598C2.649 0.315981 2.91188 0.199527 3.18906 0.132121L3.24529 0.118292H3.30245C3.4347 0.113452 3.56619 0.14032 3.68595 0.196652C3.77367 0.241398 3.85366 0.29991 3.92287 0.369965L3.97818 0.424355L4.17085 0.811542L4.13951 0.968261C4.02059 1.5601 3.76062 2.02289 3.36513 2.34462C3.05062 2.59765 2.70213 2.80525 2.32987 2.96135C2.21279 3.1909 2.10401 3.42782 2.00629 3.66843C1.90201 3.95886 1.8587 4.26765 1.87907 4.57556C1.90765 4.7166 1.95927 4.76823 2.02196 4.79404C2.32323 4.77645 2.62022 4.71432 2.90327 4.60967C3.1913 4.50151 3.46899 4.3676 3.73296 4.20957C3.99477 4.05101 4.25474 3.88139 4.50549 3.70439C4.77958 3.512 5.06495 3.33623 5.36007 3.178C5.72329 2.93216 6.09204 2.68387 6.46632 2.43312C6.8489 2.17776 7.24162 1.92978 7.63342 1.69562C7.73363 1.63094 7.82885 1.55883 7.91828 1.4799C8.04946 1.35631 8.22006 1.28299 8.40001 1.27287C8.57996 1.26275 8.7577 1.31648 8.90191 1.42459L9.15451 1.60896L9.08721 1.91134C9.05496 2.06921 8.9819 2.21586 8.8753 2.33669C8.76871 2.45752 8.63231 2.5483 8.4797 2.59998C8.37927 2.63314 8.2856 2.68404 8.20313 2.75025L8.17179 2.77421C7.78153 3.04709 7.39158 3.31505 7.00193 3.57809C6.61229 3.84113 6.21434 4.10817 5.8081 4.3792C5.48729 4.60598 5.13698 4.84936 4.76639 5.10287C4.39086 5.36065 3.99711 5.5908 3.58823 5.79151C3.2035 5.98395 2.79304 6.11994 2.36951 6.19529C2.26388 6.21394 2.15688 6.2238 2.04962 6.22479Z" fill="black"/>
</svg>
