<svg width="18" height="12" viewBox="0 0 18 12" fill="none" xmlns="http://www.w3.org/2000/svg">
<path d="M17.031 3.88994C16.6986 4.00188 16.3891 4.17257 16.1171 4.39391C15.2758 4.98453 14.4345 5.56316 13.5932 6.12979C12.752 6.69641 11.8894 7.27437 11.0054 7.86366C10.2908 8.36762 9.53419 8.89292 8.73558 9.43955C7.96243 9.9715 7.15094 10.4454 6.30775 10.8574C5.56138 11.2335 4.76451 11.4996 3.94192 11.6474C3.19973 11.7733 2.43734 11.6155 1.80607 11.2054C1.41301 10.8872 1.14523 10.4402 1.05012 9.94351C0.92244 9.37499 0.879978 8.79065 0.924129 8.20964C0.961618 7.61884 1.07798 7.0357 1.27011 6.47576C1.43051 5.997 1.63122 5.5327 1.87006 5.08785C1.68454 5.09171 1.50192 5.13464 1.3341 5.21385C1.14412 5.29784 1.00812 5.23585 0.924129 5.02386C0.917777 4.96436 0.92486 4.90418 0.944855 4.84777C0.96485 4.79136 0.997248 4.74017 1.03966 4.69795C1.08207 4.65573 1.13342 4.62356 1.18992 4.60382C1.24642 4.58408 1.30662 4.57727 1.3661 4.58389C1.62379 4.59018 1.88032 4.54742 2.12204 4.4579C2.37403 4.07993 2.63801 3.67995 2.90999 3.25798C3.18197 2.83601 3.46795 2.43804 3.76193 2.05807C4.05573 1.68067 4.40659 1.35141 4.80186 1.08214C5.21427 0.802605 5.67353 0.599394 6.15776 0.482182C6.28693 0.475344 6.41601 0.497198 6.53573 0.546176C6.62993 0.594805 6.71569 0.65828 6.78972 0.734163L6.9777 1.11214C6.76838 2.16406 6.32708 2.96401 5.65379 3.51197C4.95182 4.07548 4.16382 4.52249 3.31996 4.83588C2.98141 5.46871 2.67634 6.11889 2.40603 6.78374C2.11531 7.56932 1.99665 8.40816 2.05805 9.24356C2.18604 10.0015 2.58402 10.4635 3.25797 10.6315C4.07785 10.6022 4.88788 10.4429 5.6578 10.1595C6.33632 9.90237 6.99082 9.58583 7.61366 9.21356C8.20162 8.85492 8.77957 8.47629 9.34753 8.07765C9.92381 7.67239 10.525 7.3037 11.1474 6.97373C11.9474 6.4271 12.7566 5.88047 13.5752 5.33384C14.3938 4.78721 15.2245 4.26191 16.0671 3.75795C16.3343 3.5889 16.5877 3.39899 16.825 3.18999C16.9371 3.07032 17.0903 2.99743 17.2538 2.98594C17.4174 2.97444 17.5792 3.02518 17.7069 3.12799C17.6756 3.30501 17.5958 3.46989 17.4765 3.60438C17.3572 3.73886 17.203 3.8377 17.031 3.88994ZM5.23183 2.85001C5.67 2.49792 5.95285 1.98822 6.01977 1.43011C5.55253 1.7288 5.13711 2.10166 4.78986 2.53404C4.45013 2.94848 4.1639 3.40402 3.93792 3.88994C4.36589 3.55396 4.80586 3.20599 5.23783 2.85001H5.23183Z" fill="#C5F42C"/>
</svg>
