<svg width="30" height="40" viewBox="0 0 30 40" fill="none" xmlns="http://www.w3.org/2000/svg">
<path d="M29.9679 3.46842V10.176C26.6953 7.43801 23.3092 6.06903 19.8098 6.06903C15.9539 6.06903 12.7052 7.45399 10.0637 10.2239C7.40687 12.9785 6.07845 16.3485 6.07845 20.3341C6.07845 24.2711 7.40687 27.5927 10.0637 30.2987C12.7206 33.0047 15.9778 34.3568 19.8356 34.3549C21.8287 34.3549 23.5219 34.031 24.9151 33.3833C25.7604 33.0222 26.57 32.5827 27.3332 32.0705C28.2499 31.4578 29.1302 30.7923 29.9698 30.0774V36.9067C26.7284 38.7375 23.3255 39.6529 19.7609 39.6529C14.3974 39.6529 9.8188 37.7815 6.02498 34.0387C2.25328 30.2658 0.367432 25.7148 0.367432 20.3857C0.367432 15.6067 1.94691 11.3455 5.10587 7.6021C8.99434 3.01731 14.025 0.724917 20.1979 0.724917C23.5683 0.723074 26.8249 1.63757 29.9679 3.46842Z" fill="black"/>
</svg>
