<svg width="23" height="37" viewBox="0 0 23 37" fill="none" xmlns="http://www.w3.org/2000/svg">
<path d="M1.67559 36.9365C1.38726 36.9502 1.10101 36.8811 0.850778 36.7372C0.600541 36.5933 0.396797 36.3807 0.263691 36.1245C0.102891 35.7855 0.0228043 35.4138 0.0297082 35.0386C0.0317362 34.6958 0.0726619 34.3543 0.1517 34.0207C0.211696 33.7607 0.261691 33.5287 0.303688 33.3267C0.387682 32.8947 0.485675 32.4508 0.593667 31.9968C0.701659 31.5428 0.83165 31.0849 0.965641 30.6809C2.18863 26.6225 3.64154 22.637 5.31733 18.7437C6.91581 15.0357 8.82586 11.4698 11.0269 8.0845C11.4127 7.4206 11.8472 6.78623 12.3268 6.18663C12.8168 5.56867 13.3468 4.93072 13.9007 4.29276C14.4107 3.6928 14.9547 3.09285 15.5126 2.51889C16.1499 1.85078 16.9358 1.34239 17.8065 1.03499L17.8525 1.01899H17.8984C18.2533 0.927058 18.6152 0.864849 18.9804 0.833008H19.1324C19.6344 0.840308 20.1176 1.02523 20.4963 1.35497L20.5823 1.42697L20.6523 1.51696C21.2662 2.3169 21.4362 3.29883 21.1402 4.36276C20.9262 5.1287 20.7403 5.79066 20.5643 6.34462L20.5423 6.41661L20.5103 6.48261C19.5824 8.42607 18.542 10.3138 17.3945 12.1362C16.2726 13.9161 15.0826 15.674 13.8567 17.3618C12.6308 19.0497 11.3749 20.7156 10.111 22.3155C9.73236 22.7955 9.33238 23.2621 8.91108 23.7154C9.09707 23.5674 9.28506 23.4314 9.47104 23.3154C9.96842 22.9637 10.5599 22.7694 11.1689 22.7575C11.2558 22.7572 11.3426 22.7619 11.4289 22.7715H11.4809C12.4248 22.9155 13.0968 23.5314 13.3748 24.5053C13.5765 25.2479 13.6952 26.0105 13.7287 26.7792L13.8547 29.079C13.8547 29.209 13.8727 29.327 13.8867 29.433L13.9607 29.387C14.3273 29.1416 14.6743 28.8681 14.9987 28.5691C15.4173 28.1944 15.9186 27.7358 16.5026 27.1931C17.1025 26.6372 17.8904 25.9732 18.8544 25.2193C19.2177 24.8582 19.6272 24.5469 20.0723 24.2934C20.3131 24.1479 20.5676 24.0267 20.8322 23.9314C21.0055 23.8628 21.1899 23.8269 21.3762 23.8254C21.8862 23.8254 22.5061 24.1294 22.7181 24.9793L22.7721 25.1993L22.7281 25.4233C22.6796 25.708 22.5471 25.9718 22.3475 26.1806C22.1479 26.3895 21.8905 26.5339 21.6082 26.5952C21.5629 26.6021 21.519 26.6163 21.4782 26.6372L21.4282 26.6672C20.812 27.0295 20.2549 27.4841 19.7763 28.0151C19.2073 28.6538 18.574 29.2321 17.8864 29.741L17.0325 30.4729C16.7605 30.7069 16.4626 30.9869 16.1446 31.3029L16.0866 31.3569C15.7726 31.6268 15.4026 31.9188 14.9867 32.2228C14.5299 32.5719 13.9716 32.7622 13.3968 32.7648C13.2337 32.7642 13.0711 32.7488 12.9108 32.7188L12.8468 32.7048C11.9909 32.4928 11.3749 31.8608 11.1089 30.9269C10.9084 30.198 10.7996 29.4469 10.785 28.691C10.765 27.9651 10.733 27.2391 10.693 26.5132C10.6862 26.3866 10.6728 26.2604 10.653 26.1352C10.5345 26.2179 10.4264 26.3146 10.331 26.4232C9.92735 26.892 9.49593 27.3361 9.03907 27.7531C8.68177 28.1931 8.32379 28.6417 7.96515 29.099C7.59184 29.5776 7.2172 30.0663 6.84123 30.5649C6.15928 31.5288 5.57531 32.3948 5.12335 33.1127C4.67138 33.8307 4.27341 34.4666 3.95743 34.9706C3.69518 35.4048 3.40527 35.8216 3.08949 36.2185C2.57553 36.8085 2.03757 36.9365 1.67559 36.9365ZM5.44133 27.4231L5.57332 27.2451L5.62531 27.1952C5.98908 26.8234 6.3316 26.4315 6.65124 26.0212C6.83923 25.7833 7.03522 25.5493 7.2332 25.3213C6.75724 25.7413 6.2626 26.1412 5.7493 26.5212C5.64531 26.8252 5.54332 27.1232 5.44133 27.4231ZM11.7009 13.1601C10.713 15.012 9.77502 16.9319 8.90108 18.8677C8.7311 19.2497 8.55911 19.6377 8.38912 20.0257C9.26373 19.0071 10.0897 17.9505 10.8669 16.8559C12.6948 14.2821 14.4667 11.5483 16.1186 8.73245C16.3506 8.30248 16.6005 7.83451 16.8505 7.35655C17.0926 6.88905 17.3083 6.40833 17.4965 5.91665L17.5145 5.87265L17.8505 5.1967C17.9381 5.00432 18.0051 4.80322 18.0504 4.59674C17.7694 4.83094 17.5023 5.08135 17.2505 5.34669C16.4842 6.13662 15.7783 6.98293 15.1386 7.87851C14.4607 8.82444 13.8147 9.78438 13.2188 10.7283C12.6228 11.6722 12.1169 12.4942 11.7009 13.1601Z" fill="#C5F42C"/>
</svg>
