<svg width="9" height="6" viewBox="0 0 9 6" fill="none" xmlns="http://www.w3.org/2000/svg">
<path d="M8.32125 2.16116C8.16804 2.21276 8.02534 2.29145 7.89995 2.39347C7.51215 2.66573 7.12434 2.93246 6.73654 3.19366C6.34874 3.45486 5.9511 3.72128 5.54364 3.99293C5.21422 4.22524 4.86544 4.46738 4.49731 4.71936C4.14091 4.96458 3.76684 5.18304 3.37815 5.37297C3.0341 5.54633 2.66676 5.66899 2.28757 5.73711C1.94545 5.79515 1.59401 5.72242 1.30301 5.53338C1.12182 5.3867 0.998383 5.18063 0.954542 4.95168C0.895685 4.6896 0.876111 4.42024 0.896464 4.15241C0.913745 3.88007 0.967383 3.61126 1.05595 3.35314C1.12989 3.13245 1.22241 2.91842 1.33251 2.71336C1.24699 2.71514 1.16281 2.73493 1.08545 2.77144C0.997871 2.81016 0.935182 2.78158 0.896464 2.68387C0.893535 2.65643 0.8968 2.62869 0.906018 2.60269C0.915235 2.57669 0.930169 2.55309 0.94972 2.53363C0.969271 2.51416 0.992941 2.49934 1.01898 2.49024C1.04503 2.48114 1.07278 2.478 1.1002 2.48105C1.21898 2.48395 1.33724 2.46424 1.44867 2.42297C1.56482 2.24874 1.68651 2.06436 1.81188 1.86985C1.93726 1.67533 2.06909 1.49188 2.2046 1.31672C2.34004 1.14275 2.50177 0.990973 2.68398 0.866849C2.87409 0.737992 3.08579 0.644318 3.30901 0.590286C3.36856 0.587134 3.42806 0.597208 3.48324 0.619786C3.52667 0.642202 3.5662 0.671462 3.60032 0.706442L3.68698 0.880676C3.59049 1.36558 3.38706 1.73433 3.0767 1.98693C2.75311 2.24669 2.38987 2.45274 2.00087 2.59721C1.84481 2.88892 1.70418 3.18864 1.57957 3.49511C1.44556 3.85724 1.39086 4.24393 1.41917 4.62902C1.47817 4.97841 1.66162 5.19136 1.97229 5.2688C2.35023 5.25529 2.72363 5.18186 3.07854 5.05124C3.39132 4.93271 3.69302 4.78679 3.98014 4.61519C4.25117 4.44987 4.51759 4.27533 4.7794 4.09157C5.04505 3.90476 5.32215 3.7348 5.60909 3.58269C5.97784 3.33071 6.35089 3.07873 6.72825 2.82675C7.1056 2.57478 7.48848 2.33263 7.8769 2.10032C8.00008 2.02239 8.11691 1.93485 8.22629 1.8385C8.27796 1.78334 8.34856 1.74974 8.42396 1.74444C8.49935 1.73914 8.57396 1.76253 8.63284 1.80993C8.61838 1.89153 8.58161 1.96753 8.52662 2.02952C8.47162 2.09152 8.40054 2.13708 8.32125 2.16116ZM2.88218 1.68179C3.08417 1.51948 3.21455 1.28453 3.2454 1.02725C3.03002 1.16494 2.83852 1.33682 2.67845 1.53613C2.52184 1.72717 2.3899 1.93717 2.28573 2.16116C2.48301 2.00629 2.68582 1.84588 2.88495 1.68179H2.88218Z" fill="black"/>
</svg>
