<svg width="47" height="93" viewBox="0 0 47 93" fill="none" xmlns="http://www.w3.org/2000/svg">
<path d="M5.66756 0.661621L17.5087 1.35957L15.0369 43.2526C19.4713 39.7129 24.2316 38.0923 29.3179 38.391C35.1068 38.7323 39.6272 40.8828 42.8789 44.8425C45.6348 48.2809 46.8013 53.5786 46.3787 60.7354L44.5228 92.1552L32.6817 91.4552L34.4815 61.1414C34.7229 57.0363 34.1702 54.0199 32.8236 52.092C31.4771 50.1641 29.1892 49.1049 25.9601 48.9142C21.8204 48.6702 18.8326 49.7788 16.9968 52.24C15.1956 54.7398 14.1083 59.1468 13.735 65.4611L12.2711 90.2593L0.429932 89.5614L5.66756 0.661621Z" fill="#C5F42C"/>
</svg>
