<svg width="56" height="38" viewBox="0 0 56 38" fill="none" xmlns="http://www.w3.org/2000/svg">
<path opacity="0.2" d="M49.6379 31.8579L55 31.8571V21.2041L46 11.2857H37V31.8571M49.6379 31.8579C49.1086 30.3594 47.6797 29.2857 46 29.2857M49.6379 31.8579C49.7799 32.2598 49.8571 32.6923 49.8571 33.1429M46 29.2857C44.3203 29.2857 42.8914 30.3594 42.3621 31.8579M46 29.2857C48.1302 29.2857 49.8571 31.0126 49.8571 33.1429M46 29.2857C43.8698 29.2857 42.1429 31.0126 42.1429 33.1429M42.3621 31.8579L37 31.8571M42.3621 31.8579C42.2201 32.2598 42.1429 32.6923 42.1429 33.1429M37 31.8571V1H1M37 31.8571L18.7808 31.8579M18.7808 31.8579C18.2515 30.3594 16.8226 29.2857 15.1429 29.2857M18.7808 31.8579C18.9228 32.2598 19 32.6923 19 33.1429M15.1429 29.2857C13.4632 29.2857 12.0342 30.3594 11.5049 31.8579M15.1429 29.2857C17.2731 29.2857 19 31.0126 19 33.1429M15.1429 29.2857C13.0126 29.2857 11.2857 31.0126 11.2857 33.1429M11.5049 31.8579L8.71429 31.8571M11.5049 31.8579C11.363 32.2598 11.2857 32.6923 11.2857 33.1429M49.8571 33.1429C49.8571 35.2731 48.1302 37 46 37C43.8698 37 42.1429 35.2731 42.1429 33.1429M19 33.1429C19 35.2731 17.2731 37 15.1429 37C13.0126 37 11.2857 35.2731 11.2857 33.1429M10 16.4286H6.14286M10 24.1429H8.71429M10 8.71429H3.57143" stroke="black" stroke-width="2" stroke-linecap="round"/>
</svg>
