<svg width="11" height="18" viewBox="0 0 11 18" fill="none" xmlns="http://www.w3.org/2000/svg">
<path d="M1.10142 17.1754C0.968508 17.1818 0.836559 17.1499 0.721207 17.0836C0.605855 17.0173 0.511936 16.9192 0.450578 16.8012C0.376454 16.6449 0.339536 16.4735 0.342719 16.3006C0.343654 16.1426 0.362519 15.9851 0.398953 15.8314C0.42661 15.7115 0.449656 15.6046 0.469015 15.5115C0.507734 15.3123 0.552906 15.1077 0.602687 14.8984C0.652468 14.6891 0.71239 14.478 0.774156 14.2918C1.33792 12.421 2.00767 10.5838 2.78016 8.78915C3.51701 7.07983 4.39748 5.43608 5.41211 3.87556C5.58994 3.56952 5.79023 3.2771 6.01133 3.0007C6.23719 2.71584 6.48148 2.42176 6.73684 2.12768C6.97192 1.85112 7.22267 1.57455 7.47988 1.30998C7.77365 1.002 8.13592 0.767646 8.53727 0.625946L8.55847 0.618571H8.57967C8.74325 0.576191 8.91007 0.547515 9.07841 0.532837H9.14847C9.3799 0.536202 9.60265 0.621448 9.77719 0.773446L9.81683 0.806634L9.8491 0.848118C10.1321 1.21687 10.2105 1.66951 10.074 2.15995C9.97539 2.51302 9.88966 2.81816 9.80853 3.07352L9.79839 3.10671L9.78364 3.13713C9.35591 4.03301 8.87634 4.9032 8.34736 5.74327C7.83019 6.56374 7.28167 7.37407 6.71656 8.15213C6.15145 8.93019 5.57251 9.69812 4.98989 10.4356C4.81535 10.6569 4.63097 10.872 4.43676 11.0809C4.5225 11.0127 4.60916 10.95 4.69489 10.8966C4.92417 10.7344 5.19681 10.6448 5.47756 10.6394C5.5176 10.6392 5.55761 10.6414 5.5974 10.6458H5.62137C6.0565 10.7122 6.36625 10.9961 6.49439 11.4451C6.58739 11.7873 6.64212 12.1389 6.65756 12.4932L6.71564 13.5534C6.71564 13.6133 6.72394 13.6677 6.73039 13.7166L6.7645 13.6954C6.93349 13.5822 7.09345 13.4562 7.24295 13.3183C7.43593 13.1456 7.66702 12.9342 7.9362 12.6841C8.21277 12.4278 8.57598 12.1217 9.02033 11.7742C9.1878 11.6077 9.37658 11.4642 9.58175 11.3474C9.69273 11.2803 9.81008 11.2244 9.93206 11.1805C10.0119 11.1489 10.0969 11.1323 10.1828 11.1316C10.4179 11.1316 10.7037 11.2718 10.8014 11.6636L10.8263 11.765L10.806 11.8682C10.7837 11.9995 10.7226 12.1211 10.6306 12.2173C10.5386 12.3136 10.4199 12.3802 10.2898 12.4084C10.2689 12.4116 10.2486 12.4182 10.2298 12.4278L10.2068 12.4416C9.92272 12.6086 9.66592 12.8182 9.44531 13.063C9.18303 13.3574 8.8911 13.624 8.57414 13.8585L8.1805 14.1959C8.05513 14.3038 7.91777 14.4329 7.77119 14.5785L7.74445 14.6034C7.59972 14.7279 7.42917 14.8625 7.23742 15.0026C7.02687 15.1635 6.76953 15.2512 6.50453 15.2524C6.42937 15.2522 6.35439 15.2451 6.28052 15.2312L6.25102 15.2248C5.85645 15.127 5.57252 14.8357 5.44991 14.4052C5.35749 14.0692 5.30732 13.723 5.30056 13.3746C5.29135 13.0399 5.27659 12.7053 5.25816 12.3706C5.25503 12.3123 5.24887 12.2541 5.23972 12.1964C5.1851 12.2345 5.13526 12.2791 5.0913 12.3291C4.90523 12.5452 4.70636 12.7499 4.49577 12.9422C4.33106 13.145 4.16604 13.3518 4.00072 13.5626C3.82864 13.7833 3.65594 14.0085 3.48263 14.2384C3.16827 14.6827 2.89908 15.0819 2.69073 15.4128C2.48239 15.7438 2.29894 16.0369 2.15328 16.2692C2.03239 16.4694 1.89875 16.6615 1.75319 16.8445C1.51627 17.1164 1.26828 17.1754 1.10142 17.1754ZM2.83731 12.7901L2.89815 12.708L2.92212 12.685C3.08981 12.5136 3.2477 12.333 3.39505 12.1439C3.4817 12.0341 3.57205 11.9263 3.66331 11.8212C3.44391 12.0148 3.2159 12.1992 2.97928 12.3743C2.93134 12.5144 2.88433 12.6518 2.83731 12.7901ZM5.72278 6.21527C5.26737 7.06893 4.83502 7.95393 4.43216 8.8463C4.3538 9.02238 4.27452 9.20123 4.19616 9.38007C4.59932 8.91053 4.98006 8.42347 5.33836 7.9189C6.18095 6.73245 6.99773 5.47224 7.7592 4.17424C7.86614 3.97604 7.98138 3.76032 8.09661 3.53999C8.20821 3.32449 8.30762 3.10289 8.39438 2.87624L8.40267 2.85596L8.55755 2.54437C8.59794 2.45569 8.62884 2.36298 8.64974 2.2678C8.5202 2.37577 8.39707 2.4912 8.28098 2.61351C7.92775 2.97764 7.60233 3.36777 7.30749 3.7806C6.99497 4.21665 6.6972 4.65915 6.42248 5.09427C6.14777 5.5294 5.91453 5.90829 5.72278 6.21527Z" fill="black"/>
</svg>
