<svg width="71" height="62" viewBox="0 0 71 62" fill="none" xmlns="http://www.w3.org/2000/svg">
<path d="M15.5607 61.4737C15.3776 61.4724 15.1952 61.451 15.0167 61.4097L14.7748 61.3577L14.5748 61.1997C14.2588 60.9357 13.7608 60.3377 13.9748 59.2938C14.0481 58.8998 14.1781 58.5186 14.3608 58.1619C15.8247 54.1922 17.5726 49.8925 19.5604 45.3788C21.5483 40.8651 23.6181 36.3034 25.718 31.8298C27.8178 27.3561 29.8857 23.0304 31.8416 18.9847C33.4594 15.6449 34.8953 12.5971 36.1232 9.8933C31.9235 10.4813 27.8358 11.2212 23.9241 12.0931C19.4204 13.0931 14.8308 14.159 10.2851 15.2429C9.23715 15.4949 8.11456 15.7676 6.91731 16.0609C5.76903 16.34 4.59128 16.4797 3.40956 16.4768C3.23757 16.4768 3.06558 16.4768 2.89159 16.4768C2.46938 16.4752 2.04801 16.4391 1.63168 16.3688C1.27189 16.3153 0.934751 16.1605 0.659614 15.9225C0.384477 15.6846 0.182686 15.3733 0.0777912 15.0249L0.0537939 14.9509L0.039795 14.873C-0.160191 13.673 0.439767 13.0371 0.811741 12.7571C1.19279 12.4725 1.59305 12.2146 2.00966 11.9852L2.04565 11.9652L2.08165 11.9472C2.57362 11.7252 3.16357 11.4912 3.83353 11.2532C4.55729 10.9969 5.3071 10.8212 6.06937 10.7292C6.50138 10.6768 6.93611 10.6501 7.37128 10.6493C7.69325 10.6493 8.01723 10.6652 8.33521 10.6952C9.16063 10.763 9.95048 11.061 10.615 11.5552L10.755 11.6592L10.841 11.7892C15.0407 10.8012 19.3184 9.85531 23.5821 8.97737C28.0958 8.04543 32.8195 7.22149 37.6311 6.52354C37.8811 5.97158 38.1231 5.39562 38.3571 4.80566C38.6191 4.13771 38.8931 3.47775 39.171 2.8398C39.0304 2.35232 39.0479 1.83282 39.221 1.3559C39.507 0.495965 40.147 0 40.9709 0C41.416 0.00505664 41.8467 0.15848 42.1948 0.435969C42.5414 0.688493 42.7912 1.0519 42.9028 1.4659L42.9188 1.54189C42.9953 2.04012 42.8993 2.54954 42.6468 2.98579C42.5365 3.18669 42.4377 3.39367 42.3508 3.60575L42.3268 3.65974C42.0362 4.28237 41.7249 4.97765 41.3929 5.7456C41.3489 5.84759 41.3049 5.94558 41.2609 6.04757C44.2607 5.7076 47.4605 5.38362 50.7762 5.08764C52.9761 4.88766 55.2539 4.78966 57.5137 4.78966C59.3756 4.78966 61.2795 4.85766 63.1733 4.98965C64.3733 5.07564 65.6572 5.20363 67.0111 5.37362H67.0631L67.1131 5.38562C67.683 5.51761 68.285 5.6836 68.8969 5.88159C69.8489 6.18556 70.4528 6.83952 70.5988 7.72146C70.7308 8.64539 70.2908 9.12136 70.0189 9.32134C69.9442 9.38022 69.8822 9.45371 69.8369 9.53733L69.7189 9.73731L69.5309 9.86331C69.3976 9.95263 69.2156 10.0666 68.9849 10.2053C68.7564 10.3459 68.4934 10.4207 68.225 10.4213C68.0157 10.418 67.8093 10.3724 67.6182 10.2872C67.4271 10.202 67.2553 10.0788 67.1131 9.9253L66.8611 9.67532L66.8231 9.32134C66.7818 9.02212 66.814 8.71734 66.9171 8.43341C66.4951 8.34308 66.0685 8.27632 65.6392 8.23342C64.3273 8.08943 62.9014 7.99544 61.4035 7.95544C60.6449 7.93411 59.8996 7.92344 59.1676 7.92344C58.4357 7.92344 57.7177 7.93411 57.0138 7.95544C55.6019 7.99544 54.554 8.03943 53.894 8.07943C51.2942 8.16343 48.7544 8.33141 46.2945 8.58139C44.0307 8.81138 41.8069 9.07936 39.677 9.38134C37.7591 13.2711 35.9153 17.2108 34.1914 21.0985C32.3915 25.1682 30.4956 29.2979 28.5678 33.3557C26.6959 37.3914 24.81 41.5151 22.9682 45.6048C21.2643 49.3805 19.6304 53.3022 18.1065 57.276C18.2309 57.3968 18.3302 57.5409 18.3988 57.7001C18.4674 57.8594 18.504 58.0305 18.5065 58.2039C18.5467 58.5109 18.5077 58.8231 18.3933 59.1109C18.2788 59.3986 18.0927 59.6523 17.8525 59.8478C17.732 59.9411 17.6279 60.054 17.5446 60.1818L17.5106 60.2398L17.4666 60.2938C17.26 60.5519 17.0326 60.7927 16.7866 61.0137C16.4493 61.314 16.0123 61.4779 15.5607 61.4737Z" fill="#C5F42C"/>
</svg>
