<svg width="34" height="29" viewBox="0 0 34 29" fill="none" xmlns="http://www.w3.org/2000/svg">
<path d="M7.67302 28.3375C7.5886 28.3369 7.50451 28.327 7.42227 28.308L7.31072 28.284L7.21853 28.2112C7.07288 28.0895 6.84333 27.8139 6.94197 27.3327C6.97573 27.1511 7.03567 26.9753 7.11989 26.8109C7.7947 24.981 8.60042 22.9989 9.51677 20.9183C10.4331 18.8376 11.3872 16.7348 12.3552 14.6726C13.3232 12.6103 14.2764 10.6163 15.178 8.75136C15.9238 7.21183 16.5857 5.80689 17.1517 4.56051C15.2158 4.83155 13.3315 5.17264 11.5283 5.57458C9.45224 6.03552 7.33653 6.52687 5.24111 7.02653C4.75805 7.14269 4.24057 7.26837 3.68867 7.40358C3.15935 7.53226 2.61644 7.59664 2.0717 7.59533C1.99242 7.59533 1.91314 7.59533 1.83294 7.59533C1.63831 7.59458 1.44407 7.57793 1.25216 7.54555C1.0863 7.52085 0.930892 7.44949 0.804062 7.3398C0.677232 7.23011 0.584213 7.08661 0.535859 6.92605L0.524797 6.89194L0.518344 6.85598C0.426157 6.30286 0.702719 6.0097 0.874188 5.88064C1.04984 5.74945 1.23435 5.63055 1.42639 5.5248L1.44298 5.51558L1.45958 5.50728C1.68636 5.40495 1.95831 5.29709 2.26714 5.18739C2.60077 5.06924 2.94641 4.98825 3.2978 4.94586C3.49694 4.92171 3.69734 4.90939 3.89794 4.90899C4.04636 4.90899 4.1957 4.91636 4.34228 4.93019C4.72277 4.96143 5.08687 5.09877 5.39322 5.32659L5.45775 5.37453L5.49739 5.43445C7.43333 4.97905 9.40522 4.543 11.3707 4.1383C13.4513 3.7087 15.6288 3.32889 17.8468 3.00716C17.9621 2.75272 18.0736 2.48722 18.1815 2.21527C18.3022 1.90736 18.4285 1.60314 18.5567 1.30906C18.4919 1.08435 18.4999 0.844873 18.5797 0.625031C18.7115 0.228625 19.0065 0 19.3864 0C19.5915 0.00233096 19.7901 0.0730546 19.9505 0.200969C20.1103 0.317374 20.2254 0.484892 20.2769 0.675735L20.2843 0.710766C20.3195 0.940435 20.2753 1.17526 20.1589 1.37636C20.1081 1.46897 20.0625 1.56438 20.0225 1.66214L20.0114 1.68703C19.8774 1.97404 19.7339 2.29455 19.5809 2.64855C19.5606 2.69556 19.5403 2.74073 19.52 2.78775C20.9028 2.63103 22.3778 2.48169 23.9063 2.34525C24.9204 2.25306 25.9704 2.20789 27.0121 2.20789C27.8704 2.20789 28.748 2.23923 29.621 2.30008C30.1741 2.33972 30.766 2.39872 31.3901 2.47708H31.4141L31.4371 2.48261C31.6998 2.54345 31.9773 2.61997 32.2594 2.71123C32.6982 2.85136 32.9766 3.15281 33.0439 3.55936C33.1048 3.98527 32.902 4.20467 32.7766 4.29686C32.7422 4.324 32.7136 4.35788 32.6927 4.39642L32.6383 4.48861L32.5517 4.54669C32.4902 4.58786 32.4063 4.64041 32.3 4.70433C32.1946 4.76917 32.0734 4.80363 31.9497 4.80389C31.8532 4.80241 31.7581 4.78138 31.67 4.74209C31.5819 4.70279 31.5027 4.64604 31.4371 4.57527L31.321 4.46003L31.3034 4.29686C31.2844 4.15893 31.2993 4.01843 31.3468 3.88755C31.1523 3.84591 30.9556 3.81514 30.7577 3.79536C30.1529 3.72899 29.4956 3.68566 28.8052 3.66722C28.4555 3.65739 28.1119 3.65247 27.7745 3.65247C27.4371 3.65247 27.1061 3.65739 26.7816 3.66722C26.1308 3.68566 25.6477 3.70594 25.3435 3.72438C24.1451 3.76309 22.9743 3.84053 21.8404 3.95577C20.7968 4.06178 19.7717 4.18531 18.7899 4.32452C17.9058 6.11756 17.0559 7.93366 16.2612 9.72578C15.4315 11.6018 14.5576 13.5055 13.6689 15.376C12.806 17.2363 11.9367 19.1372 11.0876 21.0224C10.3022 22.7629 9.54903 24.5707 8.84656 26.4025C8.90388 26.4582 8.94967 26.5246 8.9813 26.598C9.01294 26.6714 9.02981 26.7503 9.03094 26.8302C9.04947 26.9718 9.0315 27.1157 8.97874 27.2483C8.92598 27.381 8.84017 27.4979 8.72949 27.588C8.6739 27.6311 8.62591 27.6831 8.58752 27.742L8.57184 27.7687L8.55156 27.7936C8.45634 27.9126 8.35151 28.0236 8.23813 28.1255C8.08263 28.2639 7.88118 28.3395 7.67302 28.3375Z" fill="black"/>
</svg>
