<svg width="69" height="60" viewBox="0 0 69 60" fill="none" xmlns="http://www.w3.org/2000/svg">
<path d="M49.8663 5.08936C53.9356 4.73078 58.0271 4.69868 62.1015 4.99337C63.2787 5.07736 64.54 5.20335 65.8852 5.37134C66.4312 5.49933 66.9991 5.65532 67.5891 5.84531C68.1791 6.0353 68.513 6.38127 68.589 6.88524C68.6201 6.9976 68.6189 7.11644 68.5857 7.22817C68.5524 7.33991 68.4884 7.44006 68.401 7.51719C68.2219 7.65434 68.0717 7.82562 67.9591 8.02115C67.8331 8.10515 67.6631 8.21114 67.4531 8.33713C67.2431 8.46312 67.0331 8.42113 66.8232 8.21114C66.7812 7.83117 66.8871 7.61118 67.1391 7.54719C67.2651 7.5145 67.3793 7.44682 67.4685 7.35198C67.5577 7.25714 67.6182 7.13901 67.6431 7.01123C67.0551 6.63259 66.0879 6.36994 64.7413 6.22328C63.3947 6.07663 61.9548 5.98197 60.4216 5.9393C58.8884 5.89797 57.4065 5.89797 55.9759 5.9393C54.5453 5.98063 53.4941 6.02263 52.8221 6.06529C50.2156 6.14929 47.6725 6.31794 45.1927 6.57126C42.7128 6.82457 40.313 7.11855 37.9932 7.45319C35.976 11.5302 34.0628 15.6086 32.2536 19.6883C30.4444 23.768 28.5738 27.8458 26.642 31.9215C24.7488 36.0012 22.8776 40.0902 21.0284 44.1886C19.1792 48.287 17.4393 52.502 15.8087 56.8337C15.9208 56.9258 16.0641 56.9709 16.2087 56.9597C16.3967 56.9597 16.4927 57.0637 16.4927 57.2737C16.522 57.4202 16.511 57.572 16.461 57.7128C16.411 57.8537 16.3238 57.9783 16.2087 58.0736C15.9963 58.2407 15.8149 58.4438 15.6727 58.6736C15.4998 58.8885 15.3099 59.0891 15.1048 59.2735C14.9818 59.3706 14.8368 59.4358 14.6826 59.4633C14.5284 59.4909 14.3698 59.48 14.2208 59.4315C13.9689 59.2222 13.8849 58.9169 13.9689 58.5156C14.025 58.1961 14.1316 57.8876 14.2848 57.6017C15.7514 53.6019 17.4846 49.3356 19.4845 44.8026C21.4843 40.2696 23.5335 35.7605 25.632 31.2755C27.7332 26.7958 29.7724 22.5175 31.7496 18.4404C33.7268 14.3634 35.4127 10.7643 36.8073 7.64318C31.9303 8.27247 27.2319 9.09241 22.7123 10.103C18.1926 11.1136 13.6409 12.1642 9.05721 13.2548C8.00795 13.5068 6.88337 13.7801 5.68345 14.0747C4.45615 14.3725 3.19379 14.5003 1.93171 14.4547C1.55105 14.4546 1.17108 14.4224 0.795793 14.3587C0.618714 14.3348 0.452598 14.2593 0.318166 14.1415C0.183733 14.0238 0.0869354 13.8691 0.0398467 13.6968C-0.0441474 13.1928 0.0818436 12.8142 0.41782 12.5608C0.758966 12.3061 1.11711 12.0749 1.48974 11.8689C1.95371 11.6689 2.50967 11.4369 3.16163 11.2049C3.81494 10.9742 4.49162 10.8159 5.17948 10.733C5.85969 10.6495 6.54686 10.6388 7.22934 10.701C7.86833 10.752 8.48016 10.9813 8.99521 11.3629C9.0364 11.4233 9.05843 11.4948 9.05843 11.5679C9.05843 11.641 9.0364 11.7125 8.99521 11.7729C8.9364 11.8592 8.89372 11.9554 8.86923 12.0569C13.4502 10.9623 18.0852 9.93235 22.7742 8.96709C27.4632 8.00182 32.3089 7.16122 37.3112 6.44527C37.6472 5.72932 37.9732 4.97204 38.2892 4.17343C38.6051 3.37482 38.9311 2.59754 39.2671 1.84159C39.1622 1.66745 39.099 1.47145 39.0824 1.26887C39.0657 1.06629 39.0961 0.862593 39.1711 0.673673C39.3191 0.232371 39.5817 0.0117188 39.959 0.0117188C40.1781 0.0153294 40.3895 0.0928507 40.559 0.231704C40.7239 0.346712 40.8457 0.513533 40.905 0.70567C40.9433 0.978638 40.8876 1.25652 40.747 1.49362C40.6188 1.72927 40.5033 1.9716 40.401 2.21956C40.1064 2.84885 39.791 3.5528 39.4551 4.33142C39.1191 5.11003 38.8251 5.75132 38.5731 6.25528C42.1062 5.83531 45.8706 5.44667 49.8663 5.08936ZM5.02749 12.9408C6.12208 12.6888 7.19401 12.4362 8.24327 12.1829C7.06984 11.805 5.81436 11.7614 4.61752 12.0569C3.53118 12.2916 2.48122 12.6709 1.49574 13.1848C2.67859 13.2772 3.86859 13.195 5.02749 12.9408Z" fill="#C5F42C"/>
</svg>
