<svg width="8" height="15" viewBox="0 0 8 15" fill="none" xmlns="http://www.w3.org/2000/svg">
<path d="M7.57055 8.08911C7.57197 9.287 7.36488 10.476 6.95858 11.6029C5.63638 12.8168 4.23689 13.9438 2.76888 14.9766C2.56623 13.4567 2.33757 11.9448 2.08292 10.4409C1.63629 7.7918 1.115 5.16865 0.519043 2.5715C0.956346 2.13153 1.38031 1.6789 1.79095 1.2136C1.98893 0.989594 2.23225 0.81022 2.50479 0.687365C2.77734 0.56451 3.07289 0.500977 3.37185 0.500977C3.6708 0.500977 3.96633 0.56451 4.23887 0.687365C4.51142 0.81022 4.75476 0.989594 4.95274 1.2136C6.53003 2.984 7.44829 5.24433 7.55256 7.61315C7.56656 7.76114 7.57055 7.92513 7.57055 8.08911Z" fill="#C5F42C"/>
</svg>
