<svg width="23" height="44" viewBox="0 0 23 44" fill="none" xmlns="http://www.w3.org/2000/svg">
<path d="M3.29501 0.89978L8.75343 1.22151L7.61399 20.5329C9.65809 18.9012 11.8525 18.1542 14.1971 18.2919C16.8656 18.4492 18.9494 19.4405 20.4483 21.2658C21.7187 22.8509 22.2564 25.2929 22.0616 28.592L21.2061 43.0756L15.7477 42.7529L16.5774 28.7791C16.6886 26.8868 16.4339 25.4963 15.8131 24.6076C15.1924 23.719 14.1378 23.2307 12.6493 23.1428C10.741 23.0303 9.36371 23.5413 8.51742 24.6759C7.68712 25.8282 7.18593 27.8597 7.01385 30.7704L6.33904 42.2016L0.880615 41.8799L3.29501 0.89978Z" fill="black"/>
</svg>
