<svg width="155" height="80" viewBox="0 0 155 80" fill="none" xmlns="http://www.w3.org/2000/svg">
<path d="M122.503 47.0728C122.522 47.1988 122.524 47.327 122.507 47.4535C122.498 47.5263 122.488 47.6001 122.477 47.6738C122.457 47.8204 122.433 47.9661 122.408 48.1117C121.845 51.384 120.344 54.4223 118.087 56.8575L118.112 56.8133C117.748 57.2218 117.265 57.5054 116.731 57.6237C116.197 57.7421 115.64 57.6893 115.137 57.4727C114.635 57.2562 114.214 56.8869 113.934 56.4174C113.653 55.9478 113.528 55.4019 113.575 54.8571C113.576 54.8512 113.576 54.8454 113.575 54.8396C113.588 54.7001 113.613 54.562 113.648 54.4266C113.833 54.1002 114.006 53.7646 114.165 53.4208C114.928 51.7855 115.366 50.018 115.456 48.2159C114.629 47.4028 114.121 46.3208 114.022 45.1654C113.311 45.2107 112.618 45.4114 111.993 45.7534C111.368 46.0954 110.825 46.5704 110.403 47.1449C109.981 47.7194 109.69 48.3794 109.551 49.0784C109.412 49.7774 109.428 50.4985 109.597 51.1908C109.66 51.4481 109.743 51.6997 109.847 51.943C109.895 52.0856 109.941 52.2285 109.986 52.3717C110.03 52.5149 110.073 52.6495 110.113 52.7755C110.15 52.8925 110.187 53.0106 110.222 53.1286C110.239 53.1839 110.256 53.2401 110.273 53.2954C110.347 53.5416 110.42 53.7868 110.491 54.0329C110.531 54.173 110.571 54.3141 110.611 54.4542C110.65 54.5943 110.688 54.7308 110.726 54.8691V54.8847C110.764 55.0239 110.801 55.1613 110.837 55.3014C110.837 55.3171 110.847 55.3328 110.85 55.3484C110.893 55.5088 110.934 55.6692 110.977 55.8306C111.022 56.0066 111.069 56.1836 111.11 56.3606C111.11 56.3689 111.11 56.3772 111.117 56.3846C111.154 56.5395 111.192 56.6934 111.229 56.8456C111.236 56.876 111.243 56.9055 111.25 56.9377C111.289 57.1018 111.328 57.265 111.365 57.4282C111.639 58.6248 111.88 59.834 112.086 61.0558C112.202 61.749 112.308 62.4459 112.402 63.1466C112.437 63.4084 112.471 63.6702 112.502 63.932C112.806 66.4324 112.963 68.9486 112.971 71.4674C112.971 71.5412 112.971 71.6158 112.971 71.6896C112.974 74.0078 112.852 76.3245 112.605 78.6295C111.756 79.3317 110.694 79.7256 109.592 79.7469C108.49 79.7682 107.414 79.4155 106.539 78.7465C106.581 77.7902 106.602 76.829 106.602 75.8629C106.602 74.257 106.544 72.6659 106.426 71.0894C106.303 69.4086 106.114 67.7467 105.858 66.1039C105.665 64.8471 105.435 63.6032 105.168 62.3722C105.078 61.9573 104.986 61.5443 104.891 61.1332C103.855 56.7644 102.355 52.5188 100.416 48.4685C99.6039 46.5479 98.3761 44.8311 96.8212 43.4415C96.8285 43.4313 96.8368 43.4221 96.8442 43.4129C96.1919 42.9652 95.6585 42.3653 95.2902 41.6652C94.9219 40.965 94.7297 40.1856 94.7303 39.3945C94.7303 39.2276 94.7396 39.0617 94.7552 38.8985C94.8496 37.9679 95.2098 37.0842 95.7929 36.3528C96.376 35.6214 97.1573 35.0733 98.0434 34.774C98.9296 34.4747 99.8832 34.4368 100.79 34.6649C101.697 34.8929 102.52 35.3772 103.159 36.06C103.192 36.0988 103.227 36.1366 103.263 36.1734L103.271 36.1817C103.555 36.4656 103.921 36.6542 104.317 36.7217C104.713 36.7893 105.121 36.7323 105.483 36.5588C108.466 35.1076 111.705 34.2572 115.015 34.0559C115.541 34.0239 116.072 34.0076 116.607 34.007C117.275 34.007 117.935 34.0322 118.588 34.0826C118.852 34.1029 119.114 34.1278 119.376 34.1554C119.716 34.1929 120.034 34.3418 120.281 34.5788C120.528 34.8159 120.689 35.128 120.74 35.4663L121.142 38.1241C121.142 38.1241 122.307 45.7729 122.503 47.0728Z" fill="black"/>
<path d="M114.623 59.9671C114.623 60.5192 114.528 61.0673 114.341 61.5868C113.731 62.1464 113.086 62.6659 112.409 63.142C112.316 62.4414 112.21 61.7444 112.093 61.0512C111.887 59.83 111.647 58.6208 111.372 57.4236C111.574 57.2208 111.769 57.0121 111.958 56.7976C112.05 56.6944 112.162 56.6117 112.287 56.5551C112.413 56.4984 112.549 56.4691 112.687 56.4691C112.825 56.4691 112.961 56.4984 113.087 56.5551C113.212 56.6117 113.325 56.6944 113.416 56.7976C114.143 57.6137 114.566 58.6557 114.614 59.7476C114.621 59.8159 114.623 59.8915 114.623 59.9671Z" fill="black"/>
<path d="M34.9679 24.4684V31.176C31.6953 28.438 28.3092 27.069 24.8098 27.069C20.9539 27.069 17.7052 28.454 15.0637 31.2239C12.4069 33.9785 11.0784 37.3485 11.0784 41.3341C11.0784 45.2711 12.4069 48.5927 15.0637 51.2987C17.7206 54.0047 20.9778 55.3568 24.8356 55.3549C26.8287 55.3549 28.5219 55.031 29.9151 54.3833C30.7604 54.0222 31.57 53.5827 32.3332 53.0705C33.2499 52.4578 34.1302 51.7923 34.9698 51.0774V57.9067C31.7284 59.7375 28.3255 60.6529 24.7609 60.6529C19.3974 60.6529 14.8188 58.7815 11.025 55.0387C7.25328 51.2658 5.36743 46.7148 5.36743 41.3857C5.36743 36.6067 6.94691 32.3455 10.1059 28.6021C13.9943 24.0173 19.025 21.7249 25.1979 21.7249C28.5683 21.7231 31.8249 22.6376 34.9679 24.4684Z" fill="black"/>
<path d="M42.295 16.8998L47.7534 17.2215L46.614 36.5329C48.6581 34.9012 50.8525 34.1542 53.1971 34.2919C55.8656 34.4492 57.9494 35.4405 59.4483 37.2658C60.7187 38.8509 61.2564 41.2929 61.0616 44.592L60.2061 59.0756L54.7477 58.7529L55.5774 44.7791C55.6886 42.8868 55.4339 41.4963 54.8131 40.6076C54.1924 39.719 53.1378 39.2307 51.6493 39.1428C49.741 39.0303 48.3637 39.5413 47.5174 40.6759C46.6871 41.8282 46.1859 43.8597 46.0138 46.7704L45.339 58.2016L39.8806 57.8799L42.295 16.8998Z" fill="black"/>
<path d="M84.1841 35.0119L89.6628 34.6136L91.3803 58.2219L85.9016 58.6248L85.7172 56.1533C83.6276 58.4174 81.2882 59.6435 78.6989 59.8315C75.4355 60.0688 72.6514 59.0854 70.3468 56.8815C68.0544 54.6279 66.7773 51.6991 66.5154 48.0951C66.2573 44.557 67.1011 41.5311 69.0469 39.0174C70.9927 36.5038 73.5583 35.1299 76.7436 34.8957C79.4896 34.696 82.0361 35.6486 84.3832 37.7536L84.1841 35.0119ZM72.0946 47.6849C72.2593 49.9478 72.9993 51.7461 74.3145 53.0797C75.6635 54.4275 77.2832 55.0326 79.1737 54.8949C81.1932 54.7474 82.7749 53.9337 83.9186 52.4538C85.058 50.9253 85.5472 49.0542 85.3862 46.8405C85.2252 44.6267 84.4702 42.846 83.1212 41.4982C81.7746 40.183 80.1076 39.5976 78.12 39.742C76.2461 39.8785 74.7306 40.7036 73.5733 42.2173C72.4333 43.7457 71.9404 45.5683 72.0946 47.6849Z" fill="black"/>
<path d="M125.183 34.1766L131.403 33.1985L131.78 35.6037C132.734 34.2264 133.619 33.2468 134.434 32.6648C135.264 32.0631 136.297 31.6636 137.532 31.4663C139.172 31.2082 140.97 31.4731 142.926 32.261L140.973 38.4034C139.661 37.7415 138.442 37.4988 137.318 37.6752C133.928 38.208 132.635 41.0351 133.441 46.1564L135.636 60.1154L129.416 61.0936L125.183 34.1766Z" fill="black"/>
<path d="M147.958 26.5712C148.17 25.6602 148.731 24.8687 149.52 24.367C150.309 23.8653 151.264 23.6935 152.179 23.8886C152.64 23.9818 153.077 24.1685 153.463 24.4371C153.849 24.7056 154.176 25.0504 154.424 25.4502C154.685 25.8371 154.863 26.2742 154.947 26.7336C155.03 27.1931 155.017 27.6649 154.908 28.119C154.816 28.5797 154.63 29.0166 154.362 29.4027C154.094 29.7889 153.75 30.1163 153.351 30.3647C152.964 30.6269 152.526 30.8054 152.066 30.8889C151.606 30.9723 151.133 30.959 150.678 30.8496C150.217 30.7493 149.781 30.5588 149.395 30.2889C149.008 30.0191 148.679 29.6753 148.426 29.2775C148.173 28.8797 148.002 28.4357 147.921 27.9712C147.841 27.5066 147.854 27.0308 147.958 26.5712ZM151.999 37.5332L146.929 60.6548L141.587 59.484L146.658 36.3624L151.999 37.5332Z" fill="black"/>
<path d="M122.795 72.0826C122.795 71.8223 122.754 71.5926 122.672 71.3936C122.596 71.1894 122.458 71.0057 122.259 70.8423C122.065 70.679 121.795 70.5233 121.447 70.3753C121.105 70.2273 120.672 70.0768 120.146 69.9236C119.595 69.7603 119.097 69.5791 118.653 69.3801C118.209 69.1759 117.829 68.9437 117.512 68.6834C117.196 68.4231 116.953 68.1245 116.785 67.7876C116.617 67.4508 116.532 67.0654 116.532 66.6316C116.532 66.1978 116.622 65.7971 116.8 65.4296C116.979 65.0622 117.234 64.7432 117.566 64.4726C117.903 64.197 118.303 63.9827 118.768 63.8296C119.232 63.6764 119.75 63.5999 120.322 63.5999C121.159 63.5999 121.869 63.7607 122.45 64.0822C123.037 64.3986 123.484 64.8146 123.79 65.3301C124.096 65.8405 124.249 66.3866 124.249 66.9685H122.78C122.78 66.5499 122.69 66.1799 122.512 65.8584C122.333 65.5317 122.062 65.2765 121.7 65.0928C121.338 64.9039 120.878 64.8095 120.322 64.8095C119.796 64.8095 119.362 64.8886 119.021 65.0468C118.679 65.2051 118.423 65.4194 118.255 65.6899C118.092 65.9604 118.01 66.2692 118.01 66.6163C118.01 66.8511 118.058 67.0654 118.155 67.2594C118.257 67.4482 118.413 67.6243 118.622 67.7876C118.837 67.951 119.107 68.1015 119.434 68.2393C119.766 68.3772 120.161 68.5099 120.621 68.6375C121.253 68.8161 121.8 69.0151 122.259 69.2346C122.718 69.4541 123.096 69.7016 123.392 69.9772C123.693 70.2477 123.915 70.5565 124.058 70.9036C124.206 71.2456 124.28 71.6335 124.28 72.0673C124.28 72.5215 124.188 72.9324 124.004 73.2999C123.821 73.6674 123.558 73.9813 123.216 74.2416C122.874 74.5019 122.463 74.7035 121.983 74.8464C121.509 74.9842 120.978 75.0531 120.391 75.0531C119.875 75.0531 119.368 74.9816 118.867 74.8387C118.372 74.6958 117.921 74.4814 117.512 74.1956C117.109 73.9098 116.785 73.5576 116.54 73.1391C116.3 72.7155 116.18 72.2255 116.18 71.6692H117.65C117.65 72.052 117.724 72.3812 117.872 72.6568C118.02 72.9273 118.222 73.1519 118.477 73.3305C118.737 73.5091 119.031 73.6418 119.357 73.7286C119.689 73.8103 120.034 73.8511 120.391 73.8511C120.906 73.8511 121.343 73.7797 121.7 73.6367C122.057 73.4938 122.328 73.2897 122.512 73.0243C122.7 72.7589 122.795 72.445 122.795 72.0826ZM129.417 66.6163V67.7034H124.939V66.6163H129.417ZM126.454 64.6028H127.871V72.8482C127.871 73.1289 127.914 73.3407 128.001 73.4836C128.088 73.6265 128.2 73.721 128.338 73.7669C128.476 73.8128 128.624 73.8358 128.782 73.8358C128.899 73.8358 129.022 73.8256 129.149 73.8052C129.282 73.7797 129.381 73.7592 129.448 73.7439L129.455 74.9C129.343 74.9357 129.195 74.9689 129.011 74.9995C128.833 75.0352 128.616 75.0531 128.361 75.0531C128.014 75.0531 127.695 74.9842 127.404 74.8464C127.113 74.7086 126.881 74.4789 126.707 74.1573C126.539 73.8307 126.454 73.3918 126.454 72.8405V64.6028ZM130.55 70.85V70.6739C130.55 70.0768 130.637 69.523 130.811 69.0126C130.984 68.4971 131.234 68.0505 131.561 67.6728C131.888 67.29 132.283 66.994 132.748 66.7847C133.212 66.5704 133.733 66.4632 134.309 66.4632C134.891 66.4632 135.414 66.5704 135.879 66.7847C136.348 66.994 136.746 67.29 137.073 67.6728C137.405 68.0505 137.657 68.4971 137.831 69.0126C138.005 69.523 138.091 70.0768 138.091 70.6739V70.85C138.091 71.4472 138.005 72.0009 137.831 72.5113C137.657 73.0217 137.405 73.4683 137.073 73.8511C136.746 74.2288 136.351 74.5248 135.886 74.7392C135.427 74.9485 134.906 75.0531 134.325 75.0531C133.743 75.0531 133.22 74.9485 132.755 74.7392C132.291 74.5248 131.893 74.2288 131.561 73.8511C131.234 73.4683 130.984 73.0217 130.811 72.5113C130.637 72.0009 130.55 71.4472 130.55 70.85ZM131.967 70.6739V70.85C131.967 71.2634 132.015 71.6539 132.112 72.0214C132.209 72.3837 132.355 72.7053 132.548 72.986C132.748 73.2667 132.995 73.4887 133.291 73.6521C133.587 73.8103 133.932 73.8894 134.325 73.8894C134.713 73.8894 135.052 73.8103 135.343 73.6521C135.639 73.4887 135.884 73.2667 136.078 72.986C136.272 72.7053 136.417 72.3837 136.514 72.0214C136.616 71.6539 136.667 71.2634 136.667 70.85V70.6739C136.667 70.2656 136.616 69.8803 136.514 69.5179C136.417 69.1504 136.269 68.8263 136.07 68.5456C135.876 68.2598 135.631 68.0352 135.335 67.8719C135.044 67.7085 134.702 67.6269 134.309 67.6269C133.921 67.6269 133.579 67.7085 133.283 67.8719C132.993 68.0352 132.748 68.2598 132.548 68.5456C132.355 68.8263 132.209 69.1504 132.112 69.5179C132.015 69.8803 131.967 70.2656 131.967 70.6739ZM141.284 67.9178V74.9H139.867V66.6163H141.246L141.284 67.9178ZM143.872 66.5704L143.864 67.8872C143.746 67.8617 143.634 67.8463 143.527 67.8412C143.425 67.831 143.308 67.8259 143.175 67.8259C142.848 67.8259 142.56 67.877 142.31 67.979C142.06 68.0811 141.848 68.224 141.674 68.4078C141.501 68.5915 141.363 68.811 141.261 69.0662C141.164 69.3163 141.1 69.5919 141.069 69.893L140.671 70.1227C140.671 69.6225 140.72 69.1529 140.817 68.714C140.919 68.2751 141.075 67.8872 141.284 67.5503C141.493 67.2084 141.758 66.9429 142.08 66.7541C142.407 66.5602 142.795 66.4632 143.244 66.4632C143.346 66.4632 143.463 66.4759 143.596 66.5015C143.729 66.5219 143.82 66.5448 143.872 66.5704ZM148.465 75.0531C147.888 75.0531 147.365 74.9561 146.896 74.7622C146.431 74.5631 146.03 74.2849 145.694 73.9277C145.362 73.5704 145.107 73.1468 144.928 72.6568C144.749 72.1668 144.66 71.6309 144.66 71.0491V70.7275C144.66 70.0538 144.76 69.4541 144.959 68.9284C145.158 68.3976 145.428 67.9484 145.77 67.5809C146.112 67.2135 146.5 66.9353 146.934 66.7464C147.368 66.5576 147.817 66.4632 148.281 66.4632C148.873 66.4632 149.384 66.5653 149.812 66.7694C150.246 66.9736 150.601 67.2594 150.877 67.6269C151.152 67.9893 151.356 68.418 151.489 68.9131C151.622 69.403 151.688 69.939 151.688 70.5208V71.1562H145.502V70.0002H150.272V69.893C150.251 69.5255 150.175 69.1683 150.042 68.8212C149.915 68.4741 149.71 68.1883 149.43 67.9637C149.149 67.7392 148.766 67.6269 148.281 67.6269C147.96 67.6269 147.664 67.6958 147.393 67.8336C147.123 67.9663 146.89 68.1653 146.697 68.4307C146.503 68.6961 146.352 69.0202 146.245 69.403C146.138 69.7858 146.084 70.2273 146.084 70.7275V71.0491C146.084 71.4421 146.138 71.8121 146.245 72.1592C146.357 72.5011 146.518 72.8023 146.727 73.0626C146.942 73.3229 147.199 73.527 147.5 73.675C147.807 73.823 148.154 73.897 148.542 73.897C149.042 73.897 149.465 73.795 149.812 73.5908C150.16 73.3867 150.463 73.1136 150.724 72.7716L151.581 73.453C151.402 73.7235 151.175 73.9813 150.9 74.2262C150.624 74.4712 150.285 74.6703 149.881 74.8234C149.483 74.9765 149.011 75.0531 148.465 75.0531Z" fill="black"/>
<path d="M7.67302 28.3375C7.5886 28.3369 7.50451 28.327 7.42227 28.308L7.31072 28.284L7.21853 28.2112C7.07288 28.0895 6.84333 27.8139 6.94197 27.3327C6.97573 27.1511 7.03567 26.9753 7.11989 26.8109C7.7947 24.981 8.60042 22.9989 9.51677 20.9183C10.4331 18.8376 11.3872 16.7348 12.3552 14.6726C13.3232 12.6103 14.2764 10.6163 15.178 8.75136C15.9238 7.21183 16.5857 5.80689 17.1517 4.56051C15.2158 4.83155 13.3315 5.17264 11.5283 5.57458C9.45224 6.03552 7.33653 6.52687 5.24111 7.02653C4.75805 7.14269 4.24057 7.26837 3.68867 7.40358C3.15935 7.53226 2.61644 7.59664 2.0717 7.59533C1.99242 7.59533 1.91314 7.59533 1.83294 7.59533C1.63831 7.59458 1.44407 7.57793 1.25216 7.54555C1.0863 7.52085 0.930892 7.44949 0.804062 7.3398C0.677232 7.23011 0.584213 7.08661 0.535859 6.92605L0.524797 6.89194L0.518344 6.85598C0.426157 6.30286 0.702719 6.0097 0.874188 5.88064C1.04984 5.74945 1.23435 5.63055 1.42639 5.5248L1.44298 5.51558L1.45958 5.50728C1.68636 5.40495 1.95831 5.29709 2.26714 5.18739C2.60077 5.06924 2.94641 4.98825 3.2978 4.94586C3.49694 4.92171 3.69734 4.90939 3.89794 4.90899C4.04636 4.90899 4.1957 4.91636 4.34228 4.93019C4.72277 4.96143 5.08687 5.09877 5.39322 5.32659L5.45775 5.37453L5.49739 5.43445C7.43333 4.97905 9.40522 4.543 11.3707 4.1383C13.4513 3.7087 15.6288 3.32889 17.8468 3.00716C17.9621 2.75272 18.0736 2.48722 18.1815 2.21527C18.3022 1.90736 18.4285 1.60314 18.5567 1.30906C18.4919 1.08435 18.4999 0.844873 18.5797 0.625031C18.7115 0.228625 19.0065 0 19.3864 0C19.5915 0.00233096 19.7901 0.0730546 19.9505 0.200969C20.1103 0.317374 20.2254 0.484892 20.2769 0.675735L20.2843 0.710766C20.3195 0.940435 20.2753 1.17526 20.1589 1.37636C20.1081 1.46897 20.0625 1.56438 20.0225 1.66214L20.0114 1.68703C19.8774 1.97404 19.7339 2.29455 19.5809 2.64855C19.5606 2.69556 19.5403 2.74073 19.52 2.78775C20.9028 2.63103 22.3778 2.48169 23.9063 2.34525C24.9204 2.25306 25.9704 2.20789 27.0121 2.20789C27.8704 2.20789 28.748 2.23923 29.621 2.30008C30.1741 2.33972 30.766 2.39872 31.3901 2.47708H31.4141L31.4371 2.48261C31.6998 2.54345 31.9773 2.61997 32.2594 2.71123C32.6982 2.85136 32.9766 3.15281 33.0439 3.55936C33.1048 3.98527 32.902 4.20467 32.7766 4.29686C32.7422 4.324 32.7136 4.35788 32.6927 4.39642L32.6383 4.48861L32.5517 4.54669C32.4902 4.58786 32.4063 4.64041 32.3 4.70433C32.1946 4.76917 32.0734 4.80363 31.9497 4.80389C31.8532 4.80241 31.7581 4.78138 31.67 4.74209C31.5819 4.70279 31.5027 4.64604 31.4371 4.57527L31.321 4.46003L31.3034 4.29686C31.2844 4.15893 31.2993 4.01843 31.3468 3.88755C31.1523 3.84591 30.9556 3.81514 30.7577 3.79536C30.1529 3.72899 29.4956 3.68566 28.8052 3.66722C28.4555 3.65739 28.1119 3.65247 27.7745 3.65247C27.4371 3.65247 27.1061 3.65739 26.7816 3.66722C26.1308 3.68566 25.6477 3.70594 25.3435 3.72438C24.1451 3.76309 22.9743 3.84053 21.8404 3.95577C20.7968 4.06178 19.7717 4.18531 18.7899 4.32452C17.9058 6.11756 17.0559 7.93366 16.2612 9.72578C15.4315 11.6018 14.5576 13.5055 13.6689 15.376C12.806 17.2363 11.9367 19.1372 11.0876 21.0224C10.3022 22.7629 9.54903 24.5707 8.84656 26.4025C8.90388 26.4582 8.94967 26.5246 8.9813 26.598C9.01294 26.6714 9.02981 26.7503 9.03094 26.8302C9.04947 26.9718 9.0315 27.1157 8.97874 27.2483C8.92598 27.381 8.84017 27.4979 8.72949 27.588C8.6739 27.6311 8.62591 27.6831 8.58752 27.742L8.57184 27.7687L8.55156 27.7936C8.45634 27.9126 8.35151 28.0236 8.23813 28.1255C8.08263 28.2639 7.88118 28.3395 7.67302 28.3375Z" fill="black"/>
<path d="M23.9479 2.80713C25.8237 2.64184 27.7098 2.62704 29.5879 2.76288C30.1306 2.8016 30.712 2.85968 31.3321 2.93712C31.5838 2.99612 31.8456 3.06802 32.1176 3.1556C32.3895 3.24318 32.5435 3.40266 32.5785 3.63498C32.5928 3.68677 32.5923 3.74155 32.5769 3.79306C32.5616 3.84457 32.5321 3.89073 32.4918 3.92629C32.4093 3.98951 32.34 4.06847 32.2881 4.1586C32.23 4.19732 32.1517 4.24618 32.0549 4.30426C31.9581 4.36234 31.8613 4.34298 31.7645 4.24618C31.7451 4.07102 31.794 3.96962 31.9101 3.94012C31.9682 3.92505 32.0209 3.89385 32.062 3.85013C32.1031 3.80641 32.131 3.75196 32.1425 3.69305C31.8714 3.51851 31.4255 3.39744 30.8048 3.32984C30.1841 3.26223 29.5203 3.2186 28.8136 3.19893C28.1068 3.17988 27.4237 3.17988 26.7642 3.19893C26.1048 3.21798 25.6202 3.23734 25.3104 3.25701C24.1089 3.29573 22.9366 3.37347 21.7935 3.49024C20.6504 3.60701 19.5441 3.74253 18.4747 3.89679C17.5449 5.77618 16.6629 7.6562 15.829 9.53682C14.995 11.4174 14.1327 13.2971 13.2422 15.1759C12.3695 17.0566 11.5069 18.9415 10.6545 20.8307C9.80204 22.7199 9.00001 24.6629 8.24837 26.6597C8.30004 26.7022 8.3661 26.723 8.43275 26.7178C8.5194 26.7178 8.56365 26.7657 8.56365 26.8625C8.57715 26.9301 8.5721 27 8.54905 27.065C8.52601 27.1299 8.48582 27.1874 8.43275 27.2313C8.33484 27.3083 8.25121 27.4019 8.18569 27.5079C8.10596 27.6069 8.01841 27.6994 7.92387 27.7844C7.86719 27.8291 7.80034 27.8592 7.72927 27.8719C7.65819 27.8846 7.58507 27.8796 7.5164 27.8572C7.40025 27.7608 7.36153 27.62 7.40025 27.435C7.4261 27.2877 7.47527 27.1455 7.54591 27.0137C8.22195 25.17 9.02091 23.2033 9.94278 21.1137C10.8647 19.0241 11.8093 16.9456 12.7766 14.8782C13.7452 12.8132 14.6852 10.841 15.5966 8.96157C16.5081 7.08217 17.2852 5.42311 17.9281 3.98437C15.6799 4.27445 13.5141 4.65242 11.4307 5.11827C9.34725 5.58413 7.24906 6.06842 5.13612 6.57115C4.65245 6.6873 4.13405 6.81329 3.58092 6.94912C3.01517 7.08637 2.43326 7.1453 1.85148 7.12427C1.67601 7.12421 1.50085 7.1094 1.32786 7.08002C1.24623 7.06899 1.16966 7.03418 1.10769 6.97991C1.04572 6.92565 1.0011 6.85434 0.979389 6.77488C0.94067 6.54257 0.998748 6.36803 1.15362 6.25126C1.31088 6.13381 1.47597 6.02724 1.64775 5.93229C1.86162 5.8401 2.1179 5.73316 2.41844 5.62623C2.71959 5.51987 3.03152 5.44692 3.34861 5.40866C3.66216 5.37019 3.97893 5.36525 4.29353 5.39391C4.58808 5.41742 4.87012 5.52314 5.10754 5.69905C5.12653 5.72691 5.13668 5.75984 5.13668 5.79355C5.13668 5.82726 5.12653 5.86018 5.10754 5.88804C5.08043 5.92781 5.06076 5.97216 5.04947 6.01895C7.16118 5.51437 9.29777 5.03961 11.4593 4.59465C13.6208 4.14969 15.8545 3.7622 18.1604 3.43216C18.3152 3.10213 18.4655 2.75305 18.6112 2.38491C18.7568 2.01678 18.9071 1.65848 19.062 1.31001C19.0136 1.22974 18.9845 1.13939 18.9768 1.046C18.9691 0.952615 18.9831 0.858719 19.0177 0.771633C19.0859 0.568206 19.207 0.466492 19.3809 0.466492C19.4819 0.468156 19.5794 0.503891 19.6575 0.567899C19.7335 0.620914 19.7897 0.697813 19.817 0.786382C19.8346 0.912212 19.809 1.04031 19.7442 1.1496C19.6851 1.25823 19.6318 1.36994 19.5847 1.48424C19.4488 1.77433 19.3035 2.09883 19.1486 2.45774C18.9937 2.81666 18.8582 3.11227 18.7421 3.34459C20.3707 3.15099 22.106 2.97184 23.9479 2.80713ZM3.27854 6.42641C3.78312 6.31026 4.27724 6.19379 4.76092 6.07702C4.22 5.90283 3.64126 5.88272 3.08956 6.01895C2.58879 6.12713 2.10479 6.302 1.65051 6.53888C2.19577 6.58149 2.74433 6.54359 3.27854 6.42641Z" fill="black"/>
<path d="M15.1014 21.1754C14.9685 21.1818 14.8366 21.1499 14.7212 21.0836C14.6059 21.0173 14.5119 20.9192 14.4506 20.8012C14.3765 20.6449 14.3395 20.4735 14.3427 20.3006C14.3437 20.1426 14.3625 19.9851 14.399 19.8314C14.4266 19.7115 14.4497 19.6046 14.469 19.5115C14.5077 19.3123 14.5529 19.1077 14.6027 18.8984C14.6525 18.6891 14.7124 18.478 14.7742 18.2918C15.3379 16.421 16.0077 14.5838 16.7802 12.7891C17.517 11.0798 18.3975 9.43608 19.4121 7.87556C19.5899 7.56952 19.7902 7.2771 20.0113 7.0007C20.2372 6.71584 20.4815 6.42176 20.7368 6.12768C20.9719 5.85112 21.2227 5.57455 21.4799 5.30998C21.7737 5.002 22.1359 4.76765 22.5373 4.62595L22.5585 4.61857H22.5797C22.7432 4.57619 22.9101 4.54751 23.0784 4.53284H23.1485C23.3799 4.5362 23.6026 4.62145 23.7772 4.77345L23.8168 4.80663L23.8491 4.84812C24.1321 5.21687 24.2105 5.66951 24.074 6.15995C23.9754 6.51302 23.8897 6.81816 23.8085 7.07352L23.7984 7.10671L23.7836 7.13713C23.3559 8.03301 22.8763 8.9032 22.3474 9.74327C21.8302 10.5637 21.2817 11.3741 20.7166 12.1521C20.1515 12.9302 19.5725 13.6981 18.9899 14.4356C18.8153 14.6569 18.631 14.872 18.4368 15.0809C18.5225 15.0127 18.6092 14.95 18.6949 14.8966C18.9242 14.7344 19.1968 14.6448 19.4776 14.6394C19.5176 14.6392 19.5576 14.6414 19.5974 14.6458H19.6214C20.0565 14.7122 20.3663 14.9961 20.4944 15.4451C20.5874 15.7873 20.6421 16.1389 20.6576 16.4932L20.7156 17.5534C20.7156 17.6133 20.7239 17.6677 20.7304 17.7166L20.7645 17.6954C20.9335 17.5822 21.0935 17.4562 21.243 17.3183C21.4359 17.1456 21.667 16.9342 21.9362 16.6841C22.2128 16.4278 22.576 16.1217 23.0203 15.7742C23.1878 15.6077 23.3766 15.4642 23.5817 15.3474C23.6927 15.2803 23.8101 15.2244 23.9321 15.1805C24.0119 15.1489 24.0969 15.1323 24.1828 15.1316C24.4179 15.1316 24.7037 15.2718 24.8014 15.6636L24.8263 15.765L24.806 15.8682C24.7837 15.9995 24.7226 16.1211 24.6306 16.2173C24.5386 16.3136 24.4199 16.3802 24.2898 16.4084C24.2689 16.4116 24.2486 16.4182 24.2298 16.4278L24.2068 16.4416C23.9227 16.6086 23.6659 16.8182 23.4453 17.063C23.183 17.3574 22.8911 17.624 22.5741 17.8585L22.1805 18.1959C22.0551 18.3038 21.9178 18.4329 21.7712 18.5785L21.7445 18.6034C21.5997 18.7279 21.4292 18.8625 21.2374 19.0026C21.0269 19.1635 20.7695 19.2512 20.5045 19.2524C20.4294 19.2522 20.3544 19.2451 20.2805 19.2312L20.251 19.2248C19.8565 19.127 19.5725 18.8357 19.4499 18.4052C19.3575 18.0692 19.3073 17.723 19.3006 17.3746C19.2913 17.0399 19.2766 16.7053 19.2582 16.3706C19.255 16.3123 19.2489 16.2541 19.2397 16.1964C19.1851 16.2345 19.1353 16.2791 19.0913 16.3291C18.9052 16.5452 18.7064 16.7499 18.4958 16.9422C18.3311 17.145 18.166 17.3518 18.0007 17.5626C17.8286 17.7833 17.6559 18.0085 17.4826 18.2384C17.1683 18.6827 16.8991 19.0819 16.6907 19.4128C16.4824 19.7438 16.2989 20.0369 16.1533 20.2692C16.0324 20.4694 15.8988 20.6615 15.7532 20.8445C15.5163 21.1164 15.2683 21.1754 15.1014 21.1754ZM16.8373 16.7901L16.8982 16.708L16.9221 16.685C17.0898 16.5136 17.2477 16.333 17.395 16.1439C17.4817 16.0341 17.572 15.9263 17.6633 15.8212C17.4439 16.0148 17.2159 16.1992 16.9793 16.3743C16.9313 16.5144 16.8843 16.6518 16.8373 16.7901ZM19.7228 10.2153C19.2674 11.0689 18.835 11.9539 18.4322 12.8463C18.3538 13.0224 18.2745 13.2012 18.1962 13.3801C18.5993 12.9105 18.9801 12.4235 19.3384 11.9189C20.181 10.7324 20.9977 9.47224 21.7592 8.17424C21.8661 7.97604 21.9814 7.76032 22.0966 7.53999C22.2082 7.32449 22.3076 7.10289 22.3944 6.87624L22.4027 6.85596L22.5575 6.54437C22.5979 6.45569 22.6288 6.36298 22.6497 6.2678C22.5202 6.37577 22.3971 6.4912 22.281 6.61351C21.9277 6.97764 21.6023 7.36777 21.3075 7.7806C20.995 8.21665 20.6972 8.65915 20.4225 9.09427C20.1478 9.5294 19.9145 9.90829 19.7228 10.2153Z" fill="black"/>
<path d="M16.3664 18.2513C16.6669 17.8149 16.9625 17.4032 17.2532 17.016C17.4338 16.832 17.6037 16.6378 17.7621 16.4343C17.9428 16.205 18.1371 15.9868 18.3438 15.7807C18.5297 15.5911 18.7342 15.4206 18.9541 15.2718C19.1258 15.1452 19.3367 15.0834 19.5496 15.0976C19.8016 15.1363 19.9663 15.2899 20.0437 15.5585C20.1272 15.8671 20.176 16.184 20.1894 16.5034C20.2091 16.8617 20.2284 17.2154 20.2475 17.5645C20.2665 17.9136 20.344 18.1751 20.4798 18.349C20.6679 18.2747 20.8482 18.1821 21.0182 18.0725C21.2078 17.946 21.3875 17.8051 21.5556 17.6512C21.7492 17.4772 21.9818 17.264 22.2535 17.0114C22.5251 16.7588 22.8837 16.4583 23.3293 16.1098C23.4757 15.9615 23.642 15.8343 23.8234 15.7318C23.911 15.6791 24.0037 15.6352 24.1 15.6009C24.2263 15.553 24.3083 15.6064 24.347 15.7613C24.3423 15.8035 24.3243 15.843 24.2956 15.8743C24.267 15.9056 24.2291 15.9271 24.1876 15.9355C24.11 15.9511 24.0359 15.9808 23.9691 16.0231C23.6436 16.2142 23.3494 16.4542 23.097 16.7348C22.8521 17.0098 22.5793 17.2585 22.283 17.4769L21.8764 17.8254C21.7412 17.9415 21.5959 18.0771 21.4404 18.2319C21.3052 18.3481 21.1451 18.4741 20.9601 18.6099C20.8769 18.6751 20.7807 18.7218 20.678 18.7469C20.5753 18.7721 20.4685 18.775 20.3645 18.7556C20.1322 18.6978 19.9786 18.5331 19.9036 18.2614C19.8219 17.963 19.7779 17.6554 19.7727 17.346C19.7629 17.0068 19.7481 16.6687 19.7285 16.332C19.7088 15.9952 19.631 15.7386 19.4952 15.5622C19.2047 15.6356 18.942 15.7923 18.7393 16.013C18.5583 16.2234 18.3644 16.4223 18.1585 16.6085C17.9833 16.8224 17.8088 17.0406 17.6349 17.263C17.4609 17.4855 17.2864 17.7132 17.1113 17.9462C16.7818 18.412 16.5105 18.8143 16.2972 19.1529C16.084 19.4915 15.9048 19.7773 15.7598 20.0102C15.6498 20.1922 15.5285 20.3671 15.3966 20.5339C15.3638 20.5826 15.3208 20.6234 15.2704 20.6536C15.22 20.6837 15.1636 20.7023 15.1053 20.7081C15.0594 20.7138 15.0129 20.7058 14.9715 20.6852C14.9302 20.6645 14.8959 20.6321 14.8729 20.5919C14.8312 20.5007 14.8113 20.4009 14.8149 20.3006C14.8158 20.1783 14.8303 20.0565 14.8582 19.9374C14.8877 19.8111 14.9117 19.7005 14.931 19.6037C14.9697 19.4092 15.0131 19.211 15.0619 19.0072C15.1108 18.8035 15.1633 18.6145 15.2223 18.4403C15.7811 16.5821 16.446 14.7575 17.2136 12.9754C17.9406 11.2856 18.811 9.66121 19.8151 8.11989C19.9826 7.82927 20.1722 7.55189 20.3821 7.2902C20.6052 7.00934 20.8424 6.72325 21.0937 6.43194C21.3267 6.16091 21.5691 5.89449 21.8211 5.63267C22.0628 5.37726 22.3617 5.18294 22.6932 5.06572C22.8314 5.02997 22.9723 5.00561 23.1145 4.99289C23.1807 4.98953 23.2469 4.99937 23.3093 5.02185C23.3716 5.04432 23.4289 5.07898 23.4777 5.1238C23.6722 5.37639 23.7202 5.67692 23.6234 6.02539C23.5266 6.37386 23.439 6.6707 23.3616 6.92606C22.941 7.80724 22.4691 8.66298 21.9483 9.48888C21.4345 10.3032 20.8968 11.0975 20.335 11.8719C19.7733 12.6463 19.2014 13.4022 18.6194 14.1397C18.0343 14.8797 17.3496 15.5352 16.5849 16.0877C16.39 16.65 16.2011 17.2071 16.0179 17.759C15.8348 18.3109 15.6651 18.8874 15.509 19.4885C15.7801 19.1 16.0658 18.6877 16.3664 18.2513ZM23.1827 6.07056C23.2017 5.96994 23.2116 5.86782 23.2122 5.76542C23.2156 5.68561 23.2005 5.60608 23.168 5.53311C23.1394 5.47503 23.0758 5.46489 22.979 5.50361C22.5913 5.70229 22.2421 5.96823 21.9474 6.28905C21.5794 6.67006 21.2405 7.07805 20.9333 7.50961C20.6138 7.9558 20.3132 8.40168 20.0317 8.84725C19.7503 9.29282 19.513 9.67049 19.3201 9.98024C18.8548 10.8536 18.4188 11.7447 18.0119 12.6537C17.6051 13.5626 17.2084 14.5033 16.8218 15.4755C17.9059 14.4879 18.8804 13.3864 19.7285 12.19C20.5815 10.9885 21.3955 9.72856 22.1705 8.41028C22.2867 8.19733 22.4037 7.97885 22.5199 7.75575C22.6395 7.52455 22.7462 7.28696 22.8398 7.04406L22.9845 6.75275C23.0504 6.61379 23.0993 6.46739 23.1302 6.3167C23.1532 6.23592 23.1707 6.15369 23.1827 6.07056Z" fill="black"/>
<path d="M26.0496 19.2248C25.6958 19.2236 25.3497 19.1212 25.0522 18.9298L25.0319 18.9178L25.0134 18.9031C24.7466 18.6907 24.5631 18.391 24.4953 18.0568C24.4263 17.7497 24.403 17.4341 24.4262 17.1202C24.4465 16.806 24.5085 16.496 24.6106 16.1983C24.6198 16.1706 24.629 16.143 24.6391 16.1162C24.5576 16.0458 24.4943 15.9566 24.4548 15.8563L24.4216 15.7724V15.6802C24.4179 15.591 24.4328 15.502 24.4653 15.4189C24.4978 15.3357 24.5472 15.2603 24.6104 15.1972C24.6735 15.1341 24.7491 15.0848 24.8323 15.0524C24.9155 15.0201 25.0045 15.0053 25.0936 15.0091H25.1536L25.4135 14.6136C25.5454 14.4108 25.6846 14.2135 25.8284 14.0291C25.9934 13.8156 26.1906 13.629 26.4128 13.476C26.649 13.316 26.9119 13.1995 27.1891 13.1321L27.2453 13.1183H27.3024C27.4347 13.1135 27.5662 13.1403 27.6859 13.1967C27.7737 13.2414 27.8537 13.2999 27.9229 13.37L27.9782 13.4244L28.1709 13.8115L28.1395 13.9683C28.0206 14.5601 27.7606 15.0229 27.3651 15.3446C27.0506 15.5976 26.7021 15.8053 26.3299 15.9614C26.2128 16.1909 26.104 16.4278 26.0063 16.6684C25.902 16.9589 25.8587 17.2677 25.8791 17.5756C25.9077 17.7166 25.9593 17.7682 26.022 17.794C26.3232 17.7764 26.6202 17.7143 26.9033 17.6097C27.1913 17.5015 27.469 17.3676 27.733 17.2096C27.9948 17.051 28.2547 16.8814 28.5055 16.7044C28.7796 16.512 29.065 16.3362 29.3601 16.178C29.7233 15.9322 30.092 15.6839 30.4663 15.4331C30.8489 15.1778 31.2416 14.9298 31.6334 14.6956C31.7336 14.6309 31.8288 14.5588 31.9183 14.4799C32.0495 14.3563 32.2201 14.283 32.4 14.2729C32.58 14.2628 32.7577 14.3165 32.9019 14.4246L33.1545 14.609L33.0872 14.9113C33.055 15.0692 32.9819 15.2159 32.8753 15.3367C32.7687 15.4575 32.6323 15.5483 32.4797 15.6C32.3793 15.6331 32.2856 15.684 32.2031 15.7502L32.1718 15.7742C31.7815 16.0471 31.3916 16.315 31.0019 16.5781C30.6123 16.8411 30.2143 17.1082 29.8081 17.3792C29.4873 17.606 29.137 17.8494 28.7664 18.1029C28.3909 18.3606 27.9971 18.5908 27.5882 18.7915C27.2035 18.984 26.793 19.1199 26.3695 19.1953C26.2639 19.2139 26.1569 19.2238 26.0496 19.2248Z" fill="black"/>
<path d="M32.3212 15.1612C32.168 15.2128 32.0253 15.2914 31.8999 15.3935C31.5121 15.6657 31.1243 15.9325 30.7365 16.1937C30.3487 16.4549 29.9511 16.7213 29.5436 16.9929C29.2142 17.2252 28.8654 17.4674 28.4973 17.7194C28.1409 17.9646 27.7668 18.183 27.3782 18.373C27.0341 18.5463 26.6668 18.669 26.2876 18.7371C25.9454 18.7951 25.594 18.7224 25.303 18.5334C25.1218 18.3867 24.9984 18.1806 24.9545 17.9517C24.8957 17.6896 24.8761 17.4202 24.8965 17.1524C24.9137 16.8801 24.9674 16.6113 25.0559 16.3531C25.1299 16.1325 25.2224 15.9184 25.3325 15.7134C25.247 15.7151 25.1628 15.7349 25.0854 15.7714C24.9979 15.8102 24.9352 15.7816 24.8965 15.6839C24.8935 15.6564 24.8968 15.6287 24.906 15.6027C24.9152 15.5767 24.9302 15.5531 24.9497 15.5336C24.9693 15.5142 24.9929 15.4993 25.019 15.4902C25.045 15.4811 25.0728 15.478 25.1002 15.4811C25.219 15.4839 25.3372 15.4642 25.4487 15.423C25.5648 15.2487 25.6865 15.0644 25.8119 14.8698C25.9373 14.6753 26.0691 14.4919 26.2046 14.3167C26.34 14.1428 26.5018 13.991 26.684 13.8668C26.8741 13.738 27.0858 13.6443 27.309 13.5903C27.3686 13.5871 27.4281 13.5972 27.4832 13.6198C27.5267 13.6422 27.5662 13.6715 27.6003 13.7064L27.687 13.8807C27.5905 14.3656 27.3871 14.7343 27.0767 14.9869C26.7531 15.2467 26.3899 15.4527 26.0009 15.5972C25.8448 15.8889 25.7042 16.1886 25.5796 16.4951C25.4456 16.8572 25.3909 17.2439 25.4192 17.629C25.4782 17.9784 25.6616 18.1914 25.9723 18.2688C26.3502 18.2553 26.7236 18.1819 27.0785 18.0512C27.3913 17.9327 27.693 17.7868 27.9801 17.6152C28.2512 17.4499 28.5176 17.2753 28.7794 17.0916C29.045 16.9048 29.3222 16.7348 29.6091 16.5827C29.9778 16.3307 30.3509 16.0787 30.7282 15.8268C31.1056 15.5748 31.4885 15.3326 31.8769 15.1003C32.0001 15.0224 32.1169 14.9348 32.2263 14.8385C32.278 14.7833 32.3486 14.7497 32.424 14.7444C32.4994 14.7391 32.574 14.7625 32.6328 14.8099C32.6184 14.8915 32.5816 14.9675 32.5266 15.0295C32.4716 15.0915 32.4005 15.1371 32.3212 15.1612ZM26.8822 14.6818C27.0842 14.5195 27.2146 14.2845 27.2454 14.0273C27.03 14.1649 26.8385 14.3368 26.6784 14.5361C26.5218 14.7272 26.3899 14.9372 26.2857 15.1612C26.483 15.0063 26.6858 14.8459 26.8849 14.6818H26.8822Z" fill="black"/>
</svg>
