<svg width="434" height="434" viewBox="0 0 434 434" fill="none" xmlns="http://www.w3.org/2000/svg">
<path d="M0.675781 381.108V328.892H105.108V433.324H0.675781V381.108ZM90.1893 381.108V343.811H15.5947V418.406H90.1893V381.108ZM30.5136 381.108V358.73H75.2704V403.487H30.5136V381.108ZM134.946 425.865V418.406H120.027V388.568H134.946V343.811H149.865V328.892H120.027V313.973H60.3515V299.054H75.2704V284.135H45.4325V313.973H30.5136V299.054H0.675781V284.135H30.5136V254.297H15.5947V269.216H0.675781V239.378H30.5136V254.297H45.4325V269.216H60.3515V254.297H75.2704V269.216H105.108V254.297H90.1893V239.378H45.4325V224.46H90.1893V209.541H45.4325V194.622H30.5136V209.541H0.675781V164.784H15.5947V179.703H105.108V164.784H90.1893V149.865H60.3515V164.784H45.4325V149.865H15.5947V120.027H45.4325V149.865H60.3515V134.946H90.1893V120.027H105.108V134.946H90.1893V149.865H105.108V164.784H120.027V134.946H134.946V120.027H120.027V75.2704H149.865V90.1893H164.784V105.108H149.865V120.027H164.784V209.541H134.946V194.622H120.027V209.541H105.108V224.46H90.1893V239.378H105.108V254.297H120.027V269.216H149.865V254.297H134.946V239.378H120.027V224.46H149.865V254.297H164.784V224.46H179.703V254.297H194.622V209.541H209.541V194.622H224.46V209.541H209.541V224.46H224.46V239.378H269.216V224.46H254.297V209.541H239.378V179.703H224.46V164.784H239.378V149.865H254.297V134.946H239.378V120.027H224.46V149.865H209.541V134.946H194.622V149.865H179.703V134.946H194.622V120.027H179.703V75.2704H164.784V60.3515H179.703V75.2704H194.622V15.5947H209.541V45.4325H239.378V30.5136H224.46V0.675781H254.297V15.5947H239.378V30.5136H269.216V15.5947H284.135V0.675781H313.973V45.4325H284.135V30.5136H269.216V60.3515H284.135V105.108H299.054V90.1893H313.973V164.784H343.811V149.865H328.892V120.027H358.73V164.784H388.568V149.865H373.649V120.027H388.568V149.865H403.487V134.946H433.324V164.784H418.406V149.865H403.487V164.784H388.568V209.541H403.487V224.46H388.568V239.378H358.73V254.297H343.811V269.216H313.973V254.297H299.054V239.378H284.135V269.216H299.054V284.135H343.811V299.054H373.649V284.135H358.73V269.216H373.649V254.297H388.568V269.216H403.487V284.135H418.406V254.297H403.487V239.378H433.324V284.135H418.406V313.973H433.324V343.811H418.406V388.568H433.324V403.487H388.568V433.324H343.811V418.406H373.649V403.487H343.811V373.649H328.892V403.487H313.973V418.406H328.892V433.324H299.054V388.568H284.135V418.406H269.216V403.487H254.297V343.811H269.216V388.568H284.135V343.811H299.054V313.973H284.135V299.054H269.216V284.135H284.135V269.216H269.216V254.297H254.297V313.973H269.216V328.892H239.378V358.73H224.46V388.568H239.378V403.487H224.46V418.406H254.297V433.324H224.46V418.406H209.541V403.487H194.622V433.324H134.946V425.865ZM179.703 403.487V388.568H194.622V343.811H164.784V358.73H179.703V373.649H149.865V388.568H134.946V403.487H149.865V418.406H179.703V403.487ZM388.568 388.568V373.649H403.487V343.811H418.406V328.892H403.487V284.135H388.568V328.892H403.487V343.811H388.568V358.73H373.649V403.487H388.568V388.568ZM313.973 381.108V373.649H299.054V388.568H313.973V381.108ZM224.46 351.27V343.811H209.541V358.73H224.46V351.27ZM358.73 336.351V313.973H313.973V358.73H358.73V336.351ZM328.892 336.351V328.892H343.811V343.811H328.892V336.351ZM209.541 321.433V313.973H239.378V299.054H209.541V284.135H194.622V299.054H209.541V313.973H179.703V299.054H164.784V313.973H149.865V299.054H134.946V284.135H120.027V269.216H105.108V284.135H90.1893V299.054H105.108V284.135H120.027V299.054H134.946V313.973H149.865V328.892H209.541V321.433ZM164.784 276.676V269.216H149.865V284.135H164.784V276.676ZM239.378 269.216V254.297H209.541V269.216H224.46V284.135H239.378V269.216ZM328.892 246.838V239.378H313.973V254.297H328.892V246.838ZM358.73 231.919V224.46H373.649V179.703H358.73V194.622H343.811V209.541H328.892V194.622H299.054V179.703H284.135V164.784H299.054V120.027H284.135V105.108H269.216V90.1893H254.297V105.108H239.378V60.3515H254.297V75.2704H269.216V60.3515H254.297V45.4325H239.378V60.3515H224.46V105.108H239.378V120.027H254.297V105.108H269.216V149.865H254.297V164.784H239.378V179.703H254.297V209.541H269.216V194.622H299.054V209.541H313.973V224.46H343.811V239.378H358.73V231.919ZM343.811 217V209.541H358.73V224.46H343.811V217ZM105.108 202.081V194.622H120.027V179.703H105.108V194.622H90.1893V209.541H105.108V202.081ZM149.865 172.243V164.784H134.946V179.703H149.865V172.243ZM149.865 97.6488V90.1893H134.946V105.108H149.865V97.6488ZM209.541 90.1893V75.2704H194.622V105.108H209.541V90.1893ZM299.054 23.0542V15.5947H284.135V30.5136H299.054V23.0542ZM418.406 425.865V418.406H433.324V433.324H418.406V425.865ZM418.406 209.541V194.622H403.487V179.703H418.406V194.622H433.324V224.46H418.406V209.541ZM0.675781 52.892V0.675781H105.108V105.108H0.675781V52.892ZM90.1893 52.892V15.5947H15.5947V90.1893H90.1893V52.892ZM30.5136 52.892V30.5136H75.2704V75.2704H30.5136V52.892ZM328.892 52.892V0.675781H433.324V105.108H328.892V52.892ZM418.406 52.892V15.5947H343.811V90.1893H418.406V52.892ZM358.73 52.892V30.5136H403.487V75.2704H358.73V52.892ZM120.027 52.892V45.4325H134.946V60.3515H120.027V52.892ZM149.865 37.9731V30.5136H134.946V0.675781H149.865V15.5947H164.784V0.675781H179.703V15.5947H164.784V45.4325H149.865V37.9731Z" fill="black"/>
</svg>
